<?xml version="1.0" encoding="UTF-8" standalone="no"?>
<svg
   xmlns:dc="http://purl.org/dc/elements/1.1/"
   xmlns:cc="http://creativecommons.org/ns#"
   xmlns:rdf="http://www.w3.org/1999/02/22-rdf-syntax-ns#"
   xmlns:svg="http://www.w3.org/2000/svg"
   xmlns="http://www.w3.org/2000/svg"
   xmlns:sodipodi="http://sodipodi.sourceforge.net/DTD/sodipodi-0.dtd"
   xmlns:inkscape="http://www.inkscape.org/namespaces/inkscape"
   width="300mm"
   height="100mm"
   viewBox="0 0 300 100"
   version="1.1"
   id="svg16"
   inkscape:version="1.0.2 (e86c870879, 2021-01-15)"
   sodipodi:docname="pipeline.svg">
  <defs
     id="defs10" />
  <sodipodi:namedview
     id="base"
     pagecolor="#ffffff"
     bordercolor="#666666"
     borderopacity="1.0"
     inkscape:pageopacity="0.0"
     inkscape:pageshadow="2"
     inkscape:zoom="1.0614164"
     inkscape:cx="555.45068"
     inkscape:cy="38.374354"
     inkscape:document-units="px"
     inkscape:current-layer="layer4"
     inkscape:document-rotation="0"
     showgrid="false"
     units="mm"
     width="300mm"
     inkscape:snap-grids="true"
     inkscape:snap-global="false"
     inkscape:window-width="1910"
     inkscape:window-height="1023"
     inkscape:window-x="3"
     inkscape:window-y="52"
     inkscape:window-maximized="0" />
  <metadata
     id="metadata13">
    <rdf:RDF>
      <cc:Work
         rdf:about="">
        <dc:format>image/svg+xml</dc:format>
        <dc:type
           rdf:resource="http://purl.org/dc/dcmitype/StillImage" />
        <dc:title></dc:title>
      </cc:Work>
    </rdf:RDF>
  </metadata>
  <g
     inkscape:label="Layer 1"
     inkscape:groupmode="layer"
     id="layer1">
    <rect
       style="fill:#808080;stroke-width:0.229077"
       id="rect18"
       width="127.27805"
       height="29.289806"
       x="85.491287"
       y="34.348721" />
    <rect
       style="fill:#cccccc;stroke-width:0.264583"
       id="rect20"
       width="22.796373"
       height="24.658461"
       x="12.43464"
       y="34.400928" />
    <rect
       style="fill:#1a1a1a;stroke-width:0.159155"
       id="rect29"
       width="14.953306"
       height="0.9165327"
       x="16.772749"
       y="40.623783" />
    <rect
       style="fill:#1a1a1a;stroke-width:0.159155"
       id="rect29-3"
       width="14.953306"
       height="0.9165327"
       x="16.772749"
       y="43.77084" />
    <rect
       style="fill:#1a1a1a;stroke-width:0.159155"
       id="rect29-6"
       width="14.953306"
       height="0.9165327"
       x="16.772749"
       y="46.917896" />
    <rect
       style="fill:#1a1a1a;stroke-width:0.159155"
       id="rect29-7"
       width="14.953306"
       height="0.9165327"
       x="16.772749"
       y="50.064949" />
    <rect
       style="fill:#1a1a1a;stroke-width:0.159155"
       id="rect29-5"
       width="14.953306"
       height="0.9165327"
       x="16.772749"
       y="53.212009" />
    <rect
       style="fill:#1a1a1a;stroke-width:0.159155"
       id="rect29-35"
       width="14.953306"
       height="0.9165327"
       x="16.772749"
       y="56.359062" />
    <rect
       style="fill:#808080;stroke-width:0.264583"
       id="rect87"
       width="11.809829"
       height="43.780949"
       x="74.095062"
       y="27.103149" />
    <rect
       style="fill:#808080;stroke-width:0.264583"
       id="rect87-6"
       width="11.809829"
       height="43.780949"
       x="212.38771"
       y="27.103149" />
  </g>
  <g
     inkscape:groupmode="layer"
     id="layer2"
     inkscape:label="Layer 2"
     style="opacity:0.996">
    <path
       style="fill:none;stroke:#000000;stroke-width:0.264583px;stroke-linecap:butt;stroke-linejoin:miter;stroke-opacity:1"
       d="m 38.489802,45.425296 15.36967,-0.03305 -0.135149,-5.009348 c 0,0 8.778229,7.539323 8.77931,8.872339 0.0012,1.520167 -8.760027,8.492492 -8.760027,8.492492 l -0.114975,-5.43348 -15.113507,-0.118183 z"
       id="path121"
       sodipodi:nodetypes="cccscccc" />
    <path
       style="fill:#000000;stroke-width:0.0623184"
       d="m 53.696852,56.410076 c -0.01976,-0.421545 -0.05248,-1.579132 -0.0727,-2.57242 -0.02021,-0.993285 -0.04787,-1.817079 -0.06144,-1.830652 -0.01357,-0.01357 -3.384008,-0.0505 -7.48986,-0.08206 -4.105851,-0.03156 -7.500239,-0.06922 -7.543083,-0.08368 -0.06097,-0.02059 -0.0779,-0.724151 -0.0779,-3.237661 v -3.211357 h 7.703801 7.703802 l -0.03746,-0.701082 c -0.08428,-1.577327 -0.117433,-4.050599 -0.05399,-4.027355 0.07922,0.02902 2.408745,2.100725 3.627972,3.226445 1.383127,1.277054 3.663095,3.589155 4.12542,4.183566 0.490881,0.631123 0.642874,0.923917 0.589666,1.135906 -0.09415,0.375113 -0.63786,1.025956 -1.968161,2.355964 -0.773517,0.773345 -1.88313,1.822167 -2.465808,2.330714 -1.160331,1.012709 -3.808347,3.231788 -3.891926,3.261493 -0.02882,0.01024 -0.06857,-0.326277 -0.08833,-0.747821 z"
       id="path123" />
    <path
       style="fill:#000000;stroke-width:0.0623184"
       d="m 243.71529,58.289558 c -0.0198,-0.421545 -0.0525,-1.579132 -0.0727,-2.57242 -0.0202,-0.993285 -0.0479,-1.817079 -0.0614,-1.830652 -0.0136,-0.01357 -3.38401,-0.0505 -7.48986,-0.08206 -4.10585,-0.03156 -7.50024,-0.06922 -7.54308,-0.08368 -0.061,-0.02059 -0.0779,-0.724151 -0.0779,-3.237661 v -3.211357 h 7.7038 7.7038 l -0.0375,-0.701082 c -0.0843,-1.577327 -0.11743,-4.050599 -0.054,-4.027355 0.0792,0.02902 2.40874,2.100725 3.62797,3.226445 1.38313,1.277054 3.6631,3.589155 4.12542,4.183566 0.49088,0.631123 0.64287,0.923917 0.58967,1.135906 -0.0942,0.375113 -0.63786,1.025956 -1.96816,2.355964 -0.77352,0.773345 -1.88313,1.822167 -2.46581,2.330714 -1.16033,1.012709 -3.80835,3.231788 -3.89193,3.261493 -0.0288,0.01024 -0.0686,-0.326277 -0.0883,-0.747821 z"
       id="path123-4" />
    <rect
       style="opacity:0.996;fill:#000000;stroke-width:0.179998"
       id="rect145-1"
       width="20.988276"
       height="0.51376057"
       x="264.14856"
       y="37.159813" />
    <rect
       style="opacity:0.996;fill:#000000;stroke-width:0.179998"
       id="rect145-0"
       width="20.988276"
       height="0.51376057"
       x="264.14856"
       y="50.887741" />
    <rect
       style="opacity:0.996;fill:#000000;stroke-width:0.179998"
       id="rect145-6"
       width="20.988276"
       height="0.51376057"
       x="264.14856"
       y="64.615685" />
    <text
       xml:space="preserve"
       style="font-style:normal;font-weight:normal;font-size:6.35px;line-height:1.25;font-family:sans-serif;opacity:0.996;fill:#000000;fill-opacity:1;stroke:none;stroke-width:0.264583"
       x="268.91003"
       y="34.464737"
       id="text268-9"><tspan
         sodipodi:role="line"
         id="tspan266-4"
         x="268.91003"
         y="34.464737"
         style="font-size:6.35px;stroke-width:0.264583">0.2</tspan></text>
    <text
       xml:space="preserve"
       style="font-style:normal;font-weight:normal;font-size:6.35px;line-height:1.25;font-family:sans-serif;opacity:0.996;fill:#000000;fill-opacity:1;stroke:none;stroke-width:0.264583"
       x="269.00375"
       y="48.921978"
       id="text268-90"><tspan
         sodipodi:role="line"
         id="tspan266-9"
         x="269.00375"
         y="48.921978"
         style="font-size:6.35px;stroke-width:0.264583">0.1</tspan></text>
    <text
       xml:space="preserve"
       style="font-style:normal;font-weight:normal;font-size:6.35px;line-height:1.25;font-family:sans-serif;opacity:0.996;fill:#000000;fill-opacity:1;stroke:none;stroke-width:0.264583"
       x="268.41336"
       y="62.039497"
       id="text268-1"><tspan
         sodipodi:role="line"
         id="tspan266-7"
         x="268.41336"
         y="62.039497"
         style="font-size:6.35px;stroke-width:0.264583">0.3</tspan></text>
    <text
       xml:space="preserve"
       style="font-style:normal;font-weight:normal;font-size:6.35px;line-height:1.25;font-family:sans-serif;opacity:0.996;fill:#000000;fill-opacity:1;stroke:none;stroke-width:0.264583"
       x="268.68481"
       y="75.801949"
       id="text268-7"><tspan
         sodipodi:role="line"
         id="tspan266-1"
         x="268.68481"
         y="75.801949"
         style="font-size:6.35px;stroke-width:0.264583">0.3</tspan></text>
    <rect
       style="fill:#999999;stroke-width:0.330227"
       id="rect350"
       width="126.67596"
       height="7.9542351"
       x="85.773735"
       y="35.430859" />
    <text
       xml:space="preserve"
       style="font-style:normal;font-weight:normal;font-size:12.7px;line-height:1.25;font-family:sans-serif;fill:#000000;fill-opacity:1;stroke:none;stroke-width:0.264583"
       x="87.484909"
       y="52.70533"
       id="text337"><tspan
         sodipodi:role="line"
         id="tspan335"
         x="87.484909"
         y="52.70533"
         style="font-style:normal;font-variant:normal;font-weight:normal;font-stretch:normal;font-size:12.7px;font-family:'SauceCodePro Nerd Font';-inkscape-font-specification:'SauceCodePro Nerd Font';fill:#ffffff;stroke-width:0.264583">Pipeline</tspan></text>
    <rect
       style="opacity:0.996;fill:#cccccc;stroke-width:0.167924"
       id="rect350-7"
       width="126.67596"
       height="2.0568295"
       x="85.825478"
       y="37.572342" />
  </g>
  <g
     inkscape:groupmode="layer"
     id="layer3"
     inkscape:label="Layer 3"
     style="opacity:0.429717">
    <rect
       style="opacity:0.996;fill:#000000;stroke-width:0.430592"
       id="rect370"
       width="3.5521715"
       height="29.372993"
       x="85.81781"
       y="34.287701" />
    <rect
       style="opacity:0.996;fill:#000000;stroke-width:0.338724"
       id="rect370-2"
       width="2.1981332"
       height="29.372993"
       x="210.20694"
       y="34.380718" />
  </g>
  <g
     inkscape:groupmode="layer"
     id="layer4"
     inkscape:label="Layer 4">
    <g
       id="g368"
       transform="matrix(0.90315354,0,0,1,13.25396,1.3468469)"
       style="opacity:0.996">
      <rect
         style="fill:#ffffff;stroke-width:0.217935"
         id="rect339"
         width="55.490143"
         height="15.225665"
         x="162.73433"
         y="41.011379" />
      <text
         xml:space="preserve"
         style="font-style:normal;font-weight:normal;font-size:10.5833px;line-height:1.25;font-family:sans-serif;fill:#000000;fill-opacity:1;stroke:none;stroke-width:0.264583"
         x="174.56828"
         y="52.569695"
         id="text343"><tspan
           sodipodi:role="line"
           id="tspan341"
           x="174.56828"
           y="52.569695"
           style="fill:#666666;stroke-width:0.264583">Model</tspan></text>
    </g>
  </g>
  <g
     inkscape:groupmode="layer"
     id="layer5"
     inkscape:label="Layer 5"
     style="display:inline;opacity:0.61464452" />
</svg>
