<?xml version="1.0" encoding="UTF-8" standalone="no"?>
<!-- Created with Inkscape (http://www.inkscape.org/) -->

<svg
   width="250"
   height="70"
   viewBox="0 0 66.145849 18.520836"
   version="1.1"
   id="svg5"
   inkscape:version="1.1.1 (3bf5ae0d25, 2021-09-20)"
   sodipodi:docname="td_extractor.svg"
   xmlns:inkscape="http://www.inkscape.org/namespaces/inkscape"
   xmlns:sodipodi="http://sodipodi.sourceforge.net/DTD/sodipodi-0.dtd"
   xmlns:xlink="http://www.w3.org/1999/xlink"
   xmlns="http://www.w3.org/2000/svg"
   xmlns:svg="http://www.w3.org/2000/svg">
  <sodipodi:namedview
     id="namedview7"
     pagecolor="#ffffff"
     bordercolor="#666666"
     borderopacity="1.0"
     inkscape:pageshadow="2"
     inkscape:pageopacity="0.0"
     inkscape:pagecheckerboard="0"
     inkscape:document-units="mm"
     showgrid="false"
     height="100px"
     units="px"
     inkscape:snap-midpoints="true"
     inkscape:zoom="4.0626344"
     inkscape:cx="47.629194"
     inkscape:cy="39.752531"
     inkscape:window-width="1910"
     inkscape:window-height="1045"
     inkscape:window-x="3"
     inkscape:window-y="28"
     inkscape:window-maximized="1"
     inkscape:current-layer="layer1" />
  <defs
     id="defs2">
    <marker
       style="overflow:visible"
       id="StopL"
       refX="0.0"
       refY="0.0"
       orient="auto"
       inkscape:stockid="StopL"
       inkscape:isstock="true">
      <path
         transform="scale(0.8)"
         style="fill:none;fill-opacity:0.75000000;fill-rule:evenodd;stroke:context-stroke;stroke-width:1.0pt"
         d="M 0.0,5.65 L 0.0,-5.65"
         id="path3098" />
    </marker>
    <marker
       style="overflow:visible"
       id="Torso"
       refX="0.0"
       refY="0.0"
       orient="auto"
       inkscape:stockid="Torso"
       inkscape:isstock="true">
      <g
         transform="scale(0.7)"
         id="g3155">
        <path
           style="fill:none;fill-opacity:0.75000000;fill-rule:evenodd;stroke:context-stroke;stroke-width:1.2500000"
           d="M -4.7792281,-3.2395420 C -2.4288541,-2.8736027 0.52103922,-1.3019943 0.25792722,0.38794346 C -0.0051877922,2.0778819 -2.2126741,2.6176539 -4.5630471,2.2517169 C -6.9134221,1.8857769 -8.5210350,0.75201414 -8.2579220,-0.93792336 C -7.9948090,-2.6278615 -7.1296041,-3.6054813 -4.7792281,-3.2395420 z "
           id="path3141" />
        <path
           style="fill:none;fill-opacity:0.75000000;fill-rule:evenodd;stroke:context-stroke;stroke-width:1.0000000pt"
           d="M 4.4598789,0.088665736 C -2.5564571,-4.3783320 5.2248769,-3.9061806 -0.84829578,-8.7197331"
           id="path3143" />
        <path
           style="fill:none;fill-opacity:0.75000000;fill-rule:evenodd;stroke:context-stroke;stroke-width:1.0000000pt"
           d="M 4.9298719,0.057520736 C -1.3872731,1.7494689 1.8027579,5.4782079 -4.9448731,7.5462725"
           id="path3145" />
        <rect
           style="fill-rule:evenodd;fill:context-stroke;stroke-width:1.0000000pt"
           width="2.6366582"
           height="2.7608147"
           x="-10.391706"
           y="-1.7408575"
           transform="matrix(0.527536,-0.849533,0.887668,0.460484,0,0)"
           id="rect3147" />
        <rect
           style="fill-rule:evenodd;fill:context-stroke;stroke-width:1.0000000pt"
           width="2.7327356"
           height="2.8614161"
           x="4.9587269"
           y="-7.9629307"
           transform="matrix(0.671205,-0.741272,0.790802,0.612072,0,0)"
           id="rect3149" />
        <path
           style="fill:#ff0000;fill-opacity:0.75000000;fill-rule:evenodd;stroke:context-stroke;stroke-width:1.0000000pt"
           d="M 16.779951 -28.685045 A 0.60731727 0.60731727 0 1 0 15.565317,-28.685045 A 0.60731727 0.60731727 0 1 0 16.779951 -28.685045 z"
           transform="matrix(0,-1.109517,1.109517,0,25.96648,19.71619)"
           id="path3151" />
        <path
           style="fill:#ff0000;fill-opacity:0.75000000;fill-rule:evenodd;stroke:context-stroke;stroke-width:1.0000000pt"
           d="M 16.779951 -28.685045 A 0.60731727 0.60731727 0 1 0 15.565317,-28.685045 A 0.60731727 0.60731727 0 1 0 16.779951 -28.685045 z"
           transform="matrix(0,-1.109517,1.109517,0,26.82450,16.99126)"
           id="path3153" />
      </g>
    </marker>
    <marker
       style="overflow:visible"
       id="Legs"
       refX="0.0"
       refY="0.0"
       orient="auto"
       inkscape:stockid="Legs"
       inkscape:isstock="true">
      <g
         transform="scale(-0.7)"
         id="g3138">
        <g
           transform="matrix(0,-1.000000,-1.000000,0,20.70862,21.31391)"
           id="g3132">
          <path
             style="fill:none;fill-opacity:0.75000000;fill-rule:evenodd;stroke:context-stroke;stroke-width:1.0000000pt"
             d="M 21.221250,20.675360 C 14.311099,25.396517 18.766725,27.282204 15.380179,34.118595"
             id="path3128" />
          <path
             style="fill:none;fill-opacity:0.75000000;fill-rule:evenodd;stroke:context-stroke;stroke-width:1.0000000pt"
             d="M 21.398110,20.548120 C 20.037601,28.895644 24.934182,29.318060 25.903151,34.373078"
             id="path3130" />
        </g>
        <path
           style="fill:context-stroke;fill-rule:evenodd;stroke-width:1.0000000pt"
           d="M -14.090070,-6.7318716 L -15.012238,-2.6884886 L -11.049487,-3.9115586 L -14.090070,-6.7318716 z "
           id="path3134" />
        <path
           style="fill:context-stroke;fill-rule:evenodd;stroke-width:1.0000000pt"
           d="M -15.215679,4.5567534 L -13.341552,8.2563664 L -11.074678,4.7835114 L -15.215679,4.5567534 z "
           id="path3136" />
      </g>
    </marker>
    <marker
       inkscape:stockid="DistanceStart"
       orient="auto"
       refY="0.0"
       refX="0.0"
       id="marker3225"
       style="overflow:visible"
       inkscape:isstock="true">
      <g
         id="g3223">
        <path
           id="path3217"
           d="M 0,0 L 2,0"
           style="fill:none;stroke:context-fill;stroke-width:1.15;stroke-linecap:square" />
        <path
           id="path3219"
           d="M 0,0 L 13,4 L 9,0 13,-4 L 0,0 z "
           style="fill:context-stroke;fill-rule:evenodd;stroke:none" />
        <path
           id="path3221"
           d="M 0,-4 L 0,40"
           style="fill:none;stroke:context-stroke;stroke-width:1;stroke-linecap:square" />
      </g>
    </marker>
    <marker
       style="overflow:visible"
       id="Arrow1Lstart"
       refX="0.0"
       refY="0.0"
       orient="auto"
       inkscape:stockid="Arrow1Lstart"
       inkscape:isstock="true">
      <path
         transform="scale(0.8) translate(12.5,0)"
         style="fill-rule:evenodd;fill:context-stroke;stroke:context-stroke;stroke-width:1.0pt"
         d="M 0.0,0.0 L 5.0,-5.0 L -12.5,0.0 L 5.0,5.0 L 0.0,0.0 z "
         id="path2929" />
    </marker>
    <marker
       inkscape:stockid="DistanceStart"
       orient="auto"
       refY="0.0"
       refX="0.0"
       id="DistanceStart"
       style="overflow:visible"
       inkscape:isstock="true">
      <g
         id="g2300">
        <path
           id="path2306"
           d="M 0,0 L 2,0"
           style="fill:none;stroke:context-fill;stroke-width:1.15;stroke-linecap:square" />
        <path
           id="path2302"
           d="M 0,0 L 13,4 L 9,0 13,-4 L 0,0 z "
           style="fill:context-stroke;fill-rule:evenodd;stroke:none" />
        <path
           id="path2304"
           d="M 0,-4 L 0,40"
           style="fill:none;stroke:context-stroke;stroke-width:1;stroke-linecap:square" />
      </g>
    </marker>
    <marker
       style="overflow:visible"
       id="Arrow2Lend"
       refX="0"
       refY="0"
       orient="auto"
       inkscape:stockid="Arrow2Lend"
       inkscape:isstock="true">
      <path
         transform="matrix(-1.1,0,0,-1.1,-1.1,0)"
         d="M 8.7185878,4.0337352 -2.2072895,0.01601326 8.7185884,-4.0017078 c -1.7454984,2.3720609 -1.7354408,5.6174519 -6e-7,8.035443 z"
         style="fill:context-stroke;fill-rule:evenodd;stroke-width:0.625;stroke-linejoin:round"
         id="path1520" />
    </marker>
    <g
       id="g7590">
      <symbol
         overflow="visible"
         id="symbol4333">
        <path
           style="stroke:none"
           d=""
           id="path2460" />
      </symbol>
      <symbol
         overflow="visible"
         id="symbol2370">
        <path
           style="stroke:none"
           d="M 2.625,-4.359375 C 1.390625,-4.0625 0.421875,-2.765625 0.421875,-1.5625 0.421875,-0.59375 1.0625,0.125 2,0.125 c 1.15625,0 1.984375,-1.578125 1.984375,-2.953125 0,-0.90625 -0.390625,-1.40625 -0.734375,-1.84375 C 2.890625,-5.125 2.296875,-5.875 2.296875,-6.3125 c 0,-0.21875 0.203125,-0.453125 0.546875,-0.453125 0.3125,0 0.5,0.125 0.71875,0.265625 0.203125,0.125 0.390625,0.25 0.546875,0.25 C 4.359375,-6.25 4.5,-6.484375 4.5,-6.65625 4.5,-6.875 4.34375,-6.890625 3.984375,-6.984375 3.46875,-7.09375 3.328125,-7.09375 3.171875,-7.09375 c -0.78125,0 -1.140625,0.4375 -1.140625,1.03125 0,0.546875 0.296875,1.09375 0.59375,1.703125 z m 0.125,0.21875 c 0.25,0.46875 0.546875,1 0.546875,1.71875 0,0.65625 -0.375,2.328125 -1.296875,2.328125 -0.546875,0 -0.96875,-0.421875 -0.96875,-1.1875 0,-0.625 0.375,-2.5 1.71875,-2.859375 z m 0,0"
           id="path540" />
      </symbol>
      <symbol
         overflow="visible"
         id="symbol621">
        <path
           style="stroke:none"
           d="m 2.046875,-3.984375 h 0.9375 c 0.203125,0 0.3125,0 0.3125,-0.203125 0,-0.109375 -0.109375,-0.109375 -0.28125,-0.109375 h -0.875 C 2.5,-5.71875 2.546875,-5.90625 2.546875,-5.96875 c 0,-0.171875 -0.125,-0.265625 -0.296875,-0.265625 -0.03125,0 -0.3125,0 -0.390625,0.359375 L 1.46875,-4.296875 h -0.9375 c -0.203125,0 -0.296875,0 -0.296875,0.1875 0,0.125 0.078125,0.125 0.28125,0.125 h 0.875 C 0.671875,-1.15625 0.625,-0.984375 0.625,-0.8125 0.625,-0.265625 1,0.109375 1.546875,0.109375 2.5625,0.109375 3.125,-1.34375 3.125,-1.421875 3.125,-1.53125 3.046875,-1.53125 3.015625,-1.53125 2.921875,-1.53125 2.90625,-1.5 2.859375,-1.390625 2.4375,-0.34375 1.90625,-0.109375 1.5625,-0.109375 c -0.203125,0 -0.3125,-0.125 -0.3125,-0.453125 0,-0.25 0.03125,-0.3125 0.0625,-0.484375 z m 0,0"
           id="path3948" />
      </symbol>
    </g>
    <g
       id="g9204">
      <symbol
         overflow="visible"
         id="symbol1548">
        <path
           style="stroke:none"
           d=""
           id="path7202" />
      </symbol>
      <symbol
         overflow="visible"
         id="symbol9142">
        <path
           style="stroke:none"
           d="M 2.625,-4.359375 C 1.390625,-4.0625 0.421875,-2.765625 0.421875,-1.5625 0.421875,-0.59375 1.0625,0.125 2,0.125 c 1.15625,0 1.984375,-1.578125 1.984375,-2.953125 0,-0.90625 -0.390625,-1.40625 -0.734375,-1.84375 C 2.890625,-5.125 2.296875,-5.875 2.296875,-6.3125 c 0,-0.21875 0.203125,-0.453125 0.546875,-0.453125 0.3125,0 0.5,0.125 0.71875,0.265625 0.203125,0.125 0.390625,0.25 0.546875,0.25 C 4.359375,-6.25 4.5,-6.484375 4.5,-6.65625 4.5,-6.875 4.34375,-6.890625 3.984375,-6.984375 3.46875,-7.09375 3.328125,-7.09375 3.171875,-7.09375 c -0.78125,0 -1.140625,0.4375 -1.140625,1.03125 0,0.546875 0.296875,1.09375 0.59375,1.703125 z m 0.125,0.21875 c 0.25,0.46875 0.546875,1 0.546875,1.71875 0,0.65625 -0.375,2.328125 -1.296875,2.328125 -0.546875,0 -0.96875,-0.421875 -0.96875,-1.1875 0,-0.625 0.375,-2.5 1.71875,-2.859375 z m 0,0"
           id="path6446" />
      </symbol>
      <symbol
         overflow="visible"
         id="symbol4491">
        <path
           style="stroke:none"
           d="m 2.046875,-3.984375 h 0.9375 c 0.203125,0 0.3125,0 0.3125,-0.203125 0,-0.109375 -0.109375,-0.109375 -0.28125,-0.109375 h -0.875 C 2.5,-5.71875 2.546875,-5.90625 2.546875,-5.96875 c 0,-0.171875 -0.125,-0.265625 -0.296875,-0.265625 -0.03125,0 -0.3125,0 -0.390625,0.359375 L 1.46875,-4.296875 h -0.9375 c -0.203125,0 -0.296875,0 -0.296875,0.1875 0,0.125 0.078125,0.125 0.28125,0.125 h 0.875 C 0.671875,-1.15625 0.625,-0.984375 0.625,-0.8125 0.625,-0.265625 1,0.109375 1.546875,0.109375 2.5625,0.109375 3.125,-1.34375 3.125,-1.421875 3.125,-1.53125 3.046875,-1.53125 3.015625,-1.53125 2.921875,-1.53125 2.90625,-1.5 2.859375,-1.390625 2.4375,-0.34375 1.90625,-0.109375 1.5625,-0.109375 c -0.203125,0 -0.3125,-0.125 -0.3125,-0.453125 0,-0.25 0.03125,-0.3125 0.0625,-0.484375 z m 0,0"
           id="path9789" />
      </symbol>
    </g>
    <g
       id="g1861">
      <symbol
         overflow="visible"
         id="symbol1008">
        <path
           style="stroke:none"
           d=""
           id="path7895" />
      </symbol>
      <symbol
         overflow="visible"
         id="symbol6299">
        <path
           style="stroke:none"
           d="M 2.625,-4.359375 C 1.390625,-4.0625 0.421875,-2.765625 0.421875,-1.5625 0.421875,-0.59375 1.0625,0.125 2,0.125 c 1.15625,0 1.984375,-1.578125 1.984375,-2.953125 0,-0.90625 -0.390625,-1.40625 -0.734375,-1.84375 C 2.890625,-5.125 2.296875,-5.875 2.296875,-6.3125 c 0,-0.21875 0.203125,-0.453125 0.546875,-0.453125 0.3125,0 0.5,0.125 0.71875,0.265625 0.203125,0.125 0.390625,0.25 0.546875,0.25 C 4.359375,-6.25 4.5,-6.484375 4.5,-6.65625 4.5,-6.875 4.34375,-6.890625 3.984375,-6.984375 3.46875,-7.09375 3.328125,-7.09375 3.171875,-7.09375 c -0.78125,0 -1.140625,0.4375 -1.140625,1.03125 0,0.546875 0.296875,1.09375 0.59375,1.703125 z m 0.125,0.21875 c 0.25,0.46875 0.546875,1 0.546875,1.71875 0,0.65625 -0.375,2.328125 -1.296875,2.328125 -0.546875,0 -0.96875,-0.421875 -0.96875,-1.1875 0,-0.625 0.375,-2.5 1.71875,-2.859375 z m 0,0"
           id="path2607" />
      </symbol>
      <symbol
         overflow="visible"
         id="symbol9764">
        <path
           style="stroke:none"
           d="m 2.046875,-3.984375 h 0.9375 c 0.203125,0 0.3125,0 0.3125,-0.203125 0,-0.109375 -0.109375,-0.109375 -0.28125,-0.109375 h -0.875 C 2.5,-5.71875 2.546875,-5.90625 2.546875,-5.96875 c 0,-0.171875 -0.125,-0.265625 -0.296875,-0.265625 -0.03125,0 -0.3125,0 -0.390625,0.359375 L 1.46875,-4.296875 h -0.9375 c -0.203125,0 -0.296875,0 -0.296875,0.1875 0,0.125 0.078125,0.125 0.28125,0.125 h 0.875 C 0.671875,-1.15625 0.625,-0.984375 0.625,-0.8125 0.625,-0.265625 1,0.109375 1.546875,0.109375 2.5625,0.109375 3.125,-1.34375 3.125,-1.421875 3.125,-1.53125 3.046875,-1.53125 3.015625,-1.53125 2.921875,-1.53125 2.90625,-1.5 2.859375,-1.390625 2.4375,-0.34375 1.90625,-0.109375 1.5625,-0.109375 c -0.203125,0 -0.3125,-0.125 -0.3125,-0.453125 0,-0.25 0.03125,-0.3125 0.0625,-0.484375 z m 0,0"
           id="path6695" />
      </symbol>
    </g>
    <g
       id="g1585">
      <symbol
         overflow="visible"
         id="symbol5158">
        <path
           style="stroke:none"
           d=""
           id="path7707" />
      </symbol>
      <symbol
         overflow="visible"
         id="symbol9954">
        <path
           style="stroke:none"
           d="m 4.40625,-6.953125 c -0.0625,-0.140625 -0.09375,-0.1875 -0.265625,-0.1875 -0.15625,0 -0.1875,0.046875 -0.25,0.1875 l -3.375,6.75 C 0.46875,-0.109375 0.46875,-0.09375 0.46875,-0.078125 0.46875,0 0.53125,0 0.6875,0 h 6.921875 c 0.15625,0 0.21875,0 0.21875,-0.078125 0,-0.015625 0,-0.03125 -0.046875,-0.125 z m -0.578125,0.8125 2.6875,5.390625 h -5.375 z m 0,0"
           id="path1507" />
      </symbol>
      <symbol
         overflow="visible"
         id="symbol8613">
        <path
           style="stroke:none"
           d=""
           id="path617" />
      </symbol>
      <symbol
         overflow="visible"
         id="symbol3456">
        <path
           style="stroke:none"
           d="m 2.046875,-3.984375 h 0.9375 c 0.203125,0 0.3125,0 0.3125,-0.203125 0,-0.109375 -0.109375,-0.109375 -0.28125,-0.109375 h -0.875 C 2.5,-5.71875 2.546875,-5.90625 2.546875,-5.96875 c 0,-0.171875 -0.125,-0.265625 -0.296875,-0.265625 -0.03125,0 -0.3125,0 -0.390625,0.359375 L 1.46875,-4.296875 h -0.9375 c -0.203125,0 -0.296875,0 -0.296875,0.1875 0,0.125 0.078125,0.125 0.28125,0.125 h 0.875 C 0.671875,-1.15625 0.625,-0.984375 0.625,-0.8125 0.625,-0.265625 1,0.109375 1.546875,0.109375 2.5625,0.109375 3.125,-1.34375 3.125,-1.421875 3.125,-1.53125 3.046875,-1.53125 3.015625,-1.53125 2.921875,-1.53125 2.90625,-1.5 2.859375,-1.390625 2.4375,-0.34375 1.90625,-0.109375 1.5625,-0.109375 c -0.203125,0 -0.3125,-0.125 -0.3125,-0.453125 0,-0.25 0.03125,-0.3125 0.0625,-0.484375 z m 0,0"
           id="path200" />
      </symbol>
    </g>
  </defs>
  <g
     inkscape:label="Layer 1"
     inkscape:groupmode="layer"
     id="layer1">
    <g
       id="g2243">
      <rect
         style="fill:#241f31;stroke-width:0.411883"
         id="rect1120"
         width="0.5"
         height="4.2366986"
         x="6.9285693"
         y="11.74348" />
      <circle
         style="fill:#2ca05a;fill-opacity:1;stroke-width:0.374999"
         id="path1016"
         cx="7.1785693"
         cy="11.045078"
         r="1.5" />
    </g>
    <g
       id="g2247">
      <rect
         style="fill:#241f31;stroke-width:0.411883"
         id="rect1120-1"
         width="0.5"
         height="4.2366986"
         x="16.96386"
         y="11.74348" />
      <circle
         style="fill:#55ddff;fill-opacity:1;stroke-width:0.374999"
         id="path1016-2"
         cx="17.21386"
         cy="11.045078"
         r="1.5" />
    </g>
    <g
       id="g2251">
      <rect
         style="fill:#241f31;stroke-width:0.411883"
         id="rect1120-6"
         width="0.5"
         height="4.2366986"
         x="35.927299"
         y="11.74348" />
      <circle
         style="fill:#ff5555;fill-opacity:1;stroke-width:0.374999"
         id="path1016-9"
         cx="36.177299"
         cy="11.045078"
         r="1.5" />
    </g>
    <rect
       style="fill:#77767b;stroke-width:0.0906466"
       id="rect846"
       width="35.973961"
       height="0.9612937"
       x="5.7966814"
       y="15.63311" />
    <rect
       style="fill:#77767b;stroke-width:0.0134611"
       id="rect846-3"
       width="0.79331654"
       height="0.9612937"
       x="42.148426"
       y="15.636659" />
    <rect
       style="fill:#77767b;stroke-width:0.0134611"
       id="rect846-3-6"
       width="0.79331654"
       height="0.9612937"
       x="43.246887"
       y="15.565032" />
    <rect
       style="fill:#77767b;stroke-width:0.0134611"
       id="rect846-3-7"
       width="0.79331654"
       height="0.9612937"
       x="44.363625"
       y="15.685916" />
    <rect
       style="fill:#77767b;stroke-width:0.0134611"
       id="rect846-3-5"
       width="0.79331654"
       height="0.9612937"
       x="4.6503282"
       y="15.685916" />
    <rect
       style="fill:#77767b;stroke-width:0.0134611"
       id="rect846-3-3"
       width="0.79331654"
       height="0.9612937"
       x="3.6199362"
       y="15.645621" />
    <rect
       style="fill:#77767b;stroke-width:0.0134611"
       id="rect846-3-56"
       width="0.79331654"
       height="0.9612937"
       x="2.5837872"
       y="15.616839" />
    <rect
       style="fill:#deddda;stroke-width:0.422158"
       id="rect1869"
       width="13.302483"
       height="15.207359"
       x="50.707619"
       y="1.5831165" />
    <rect
       style="fill:#77767b;stroke-width:0.499999"
       id="rect2195"
       width="5.8945374"
       height="1.1973279"
       x="56.780083"
       y="2.9751554" />
    <rect
       style="fill:#77767b;stroke-width:0.213546"
       id="rect2195-5"
       width="1.0752097"
       height="1.1973279"
       x="51.878426"
       y="2.9757323" />
    <rect
       style="fill:#77767b;stroke-width:0.213546"
       id="rect2195-5-5"
       width="1.0752097"
       height="1.1973279"
       x="53.311195"
       y="2.9757323" />
    <rect
       style="fill:#77767b;stroke-width:0.213546"
       id="rect2195-5-1"
       width="1.0752097"
       height="1.1973279"
       x="54.84166"
       y="2.9757323" />
    <rect
       style="fill:#9a9996;stroke-width:0.499999"
       id="rect2195-3"
       width="5.8945374"
       height="1.1973279"
       x="56.780083"
       y="6.2217574" />
    <rect
       style="fill:#9a9996;stroke-width:0.499999"
       id="rect2195-9"
       width="5.8945374"
       height="1.1973279"
       x="56.780083"
       y="8.2537622" />
    <rect
       style="fill:#9a9996;stroke-width:0.499999"
       id="rect2195-4"
       width="5.8945374"
       height="1.1973279"
       x="56.780083"
       y="10.285762" />
    <rect
       style="fill:#9a9996;stroke-width:0.499999"
       id="rect2195-98"
       width="5.8945374"
       height="1.1973279"
       x="56.780083"
       y="12.317764" />
    <rect
       style="fill:#9a9996;stroke-width:0.499999"
       id="rect2195-92"
       width="5.8945374"
       height="1.1973279"
       x="56.780083"
       y="14.349763" />
    <path
       style="fill:none;stroke:#000000;stroke-width:0.264583px;stroke-linecap:butt;stroke-linejoin:miter;stroke-opacity:1;marker-end:url(#Arrow2Lend)"
       d="M 25.855743,4.6590885 C 25.592686,1.9277271 43.621191,1.2856354 56.780081,8.8524159"
       id="path2072"
       sodipodi:nodetypes="cc" />
    <g
       inkscape:label=""
       transform="matrix(0.49185024,0,0,0.49185024,-21.775021,-29.334906)"
       id="g8440">
      <g
         id="g6665">
        <g
           style="fill:#000000;fill-opacity:1"
           id="g4369">
          <use
             xlink:href="#symbol9954"
             x="91.925003"
             y="81.962997"
             id="use6402"
             width="100%"
             height="100%" />
        </g>
        <g
           style="fill:#000000;fill-opacity:1"
           id="g8678">
          <use
             xlink:href="#symbol3456"
             x="100.227"
             y="81.962997"
             id="use9045"
             width="100%"
             height="100%" />
        </g>
      </g>
    </g>
    <path
       style="fill:none;stroke:#000000;stroke-width:0.262908px;stroke-linecap:butt;stroke-linejoin:miter;stroke-opacity:1;marker-start:url(#StopL);marker-end:url(#StopL)"
       d="m 17.25899,6.1811545 18.87107,0.059734"
       id="path1497"
       sodipodi:nodetypes="cc" />
  </g>
</svg>
