<?xml version="1.0" encoding="UTF-8" standalone="no"?>
<!-- Created with Inkscape (http://www.inkscape.org/) -->

<svg
   width="250"
   height="70"
   viewBox="0 0 66.145849 18.520836"
   version="1.1"
   id="svg5"
   inkscape:version="1.1.2 (0a00cf5339, 2022-02-04)"
   sodipodi:docname="td_extractor.svg"
   xmlns:inkscape="http://www.inkscape.org/namespaces/inkscape"
   xmlns:sodipodi="http://sodipodi.sourceforge.net/DTD/sodipodi-0.dtd"
   xmlns:xlink="http://www.w3.org/1999/xlink"
   xmlns="http://www.w3.org/2000/svg"
   xmlns:svg="http://www.w3.org/2000/svg">
  <sodipodi:namedview
     id="namedview7"
     pagecolor="#ffffff"
     bordercolor="#666666"
     borderopacity="1.0"
     inkscape:pageshadow="2"
     inkscape:pageopacity="0.0"
     inkscape:pagecheckerboard="0"
     inkscape:document-units="mm"
     showgrid="false"
     height="100px"
     units="px"
     inkscape:snap-midpoints="true"
     inkscape:zoom="4.0626344"
     inkscape:cx="42.213988"
     inkscape:cy="77.658969"
     inkscape:window-width="2249"
     inkscape:window-height="946"
     inkscape:window-x="1842"
     inkscape:window-y="298"
     inkscape:window-maximized="0"
     inkscape:current-layer="layer1"
     inkscape:showpageshadow="2"
     inkscape:deskcolor="#d1d1d1"
     inkscape:snap-object-midpoints="false" />
  <defs
     id="defs2">
    <marker
       style="overflow:visible"
       id="StopL"
       refX="0.0"
       refY="0.0"
       orient="auto"
       inkscape:stockid="StopL"
       inkscape:isstock="true">
      <path
         transform="scale(0.8)"
         style="fill:none;fill-opacity:0.75000000;fill-rule:evenodd;stroke:context-stroke;stroke-width:1.0pt"
         d="M 0.0,5.65 L 0.0,-5.65"
         id="path3098" />
    </marker>
    <marker
       style="overflow:visible"
       id="Torso"
       refX="0.0"
       refY="0.0"
       orient="auto"
       inkscape:stockid="Torso"
       inkscape:isstock="true">
      <g
         transform="scale(0.7)"
         id="g3155">
        <path
           style="fill:none;fill-opacity:0.75000000;fill-rule:evenodd;stroke:context-stroke;stroke-width:1.2500000"
           d="M -4.7792281,-3.2395420 C -2.4288541,-2.8736027 0.52103922,-1.3019943 0.25792722,0.38794346 C -0.0051877922,2.0778819 -2.2126741,2.6176539 -4.5630471,2.2517169 C -6.9134221,1.8857769 -8.5210350,0.75201414 -8.2579220,-0.93792336 C -7.9948090,-2.6278615 -7.1296041,-3.6054813 -4.7792281,-3.2395420 z "
           id="path3141" />
        <path
           style="fill:none;fill-opacity:0.75000000;fill-rule:evenodd;stroke:context-stroke;stroke-width:1.0000000pt"
           d="M 4.4598789,0.088665736 C -2.5564571,-4.3783320 5.2248769,-3.9061806 -0.84829578,-8.7197331"
           id="path3143" />
        <path
           style="fill:none;fill-opacity:0.75000000;fill-rule:evenodd;stroke:context-stroke;stroke-width:1.0000000pt"
           d="M 4.9298719,0.057520736 C -1.3872731,1.7494689 1.8027579,5.4782079 -4.9448731,7.5462725"
           id="path3145" />
        <rect
           style="fill-rule:evenodd;fill:context-stroke;stroke-width:1.0000000pt"
           width="2.6366582"
           height="2.7608147"
           x="-10.391706"
           y="-1.7408575"
           transform="matrix(0.527536,-0.849533,0.887668,0.460484,0,0)"
           id="rect3147" />
        <rect
           style="fill-rule:evenodd;fill:context-stroke;stroke-width:1.0000000pt"
           width="2.7327356"
           height="2.8614161"
           x="4.9587269"
           y="-7.9629307"
           transform="matrix(0.671205,-0.741272,0.790802,0.612072,0,0)"
           id="rect3149" />
        <path
           style="fill:#ff0000;fill-opacity:0.75000000;fill-rule:evenodd;stroke:context-stroke;stroke-width:1.0000000pt"
           d="M 16.779951 -28.685045 A 0.60731727 0.60731727 0 1 0 15.565317,-28.685045 A 0.60731727 0.60731727 0 1 0 16.779951 -28.685045 z"
           transform="matrix(0,-1.109517,1.109517,0,25.96648,19.71619)"
           id="path3151" />
        <path
           style="fill:#ff0000;fill-opacity:0.75000000;fill-rule:evenodd;stroke:context-stroke;stroke-width:1.0000000pt"
           d="M 16.779951 -28.685045 A 0.60731727 0.60731727 0 1 0 15.565317,-28.685045 A 0.60731727 0.60731727 0 1 0 16.779951 -28.685045 z"
           transform="matrix(0,-1.109517,1.109517,0,26.82450,16.99126)"
           id="path3153" />
      </g>
    </marker>
    <marker
       style="overflow:visible"
       id="Legs"
       refX="0.0"
       refY="0.0"
       orient="auto"
       inkscape:stockid="Legs"
       inkscape:isstock="true">
      <g
         transform="scale(-0.7)"
         id="g3138">
        <g
           transform="matrix(0,-1.000000,-1.000000,0,20.70862,21.31391)"
           id="g3132">
          <path
             style="fill:none;fill-opacity:0.75000000;fill-rule:evenodd;stroke:context-stroke;stroke-width:1.0000000pt"
             d="M 21.221250,20.675360 C 14.311099,25.396517 18.766725,27.282204 15.380179,34.118595"
             id="path3128" />
          <path
             style="fill:none;fill-opacity:0.75000000;fill-rule:evenodd;stroke:context-stroke;stroke-width:1.0000000pt"
             d="M 21.398110,20.548120 C 20.037601,28.895644 24.934182,29.318060 25.903151,34.373078"
             id="path3130" />
        </g>
        <path
           style="fill:context-stroke;fill-rule:evenodd;stroke-width:1.0000000pt"
           d="M -14.090070,-6.7318716 L -15.012238,-2.6884886 L -11.049487,-3.9115586 L -14.090070,-6.7318716 z "
           id="path3134" />
        <path
           style="fill:context-stroke;fill-rule:evenodd;stroke-width:1.0000000pt"
           d="M -15.215679,4.5567534 L -13.341552,8.2563664 L -11.074678,4.7835114 L -15.215679,4.5567534 z "
           id="path3136" />
      </g>
    </marker>
    <marker
       inkscape:stockid="DistanceStart"
       orient="auto"
       refY="0.0"
       refX="0.0"
       id="marker3225"
       style="overflow:visible"
       inkscape:isstock="true">
      <g
         id="g3223">
        <path
           id="path3217"
           d="M 0,0 L 2,0"
           style="fill:none;stroke:context-fill;stroke-width:1.15;stroke-linecap:square" />
        <path
           id="path3219"
           d="M 0,0 L 13,4 L 9,0 13,-4 L 0,0 z "
           style="fill:context-stroke;fill-rule:evenodd;stroke:none" />
        <path
           id="path3221"
           d="M 0,-4 L 0,40"
           style="fill:none;stroke:context-stroke;stroke-width:1;stroke-linecap:square" />
      </g>
    </marker>
    <marker
       style="overflow:visible"
       id="Arrow1Lstart"
       refX="0.0"
       refY="0.0"
       orient="auto"
       inkscape:stockid="Arrow1Lstart"
       inkscape:isstock="true">
      <path
         transform="scale(0.8) translate(12.5,0)"
         style="fill-rule:evenodd;fill:context-stroke;stroke:context-stroke;stroke-width:1.0pt"
         d="M 0.0,0.0 L 5.0,-5.0 L -12.5,0.0 L 5.0,5.0 L 0.0,0.0 z "
         id="path2929" />
    </marker>
    <marker
       inkscape:stockid="DistanceStart"
       orient="auto"
       refY="0.0"
       refX="0.0"
       id="DistanceStart"
       style="overflow:visible"
       inkscape:isstock="true">
      <g
         id="g2300">
        <path
           id="path2306"
           d="M 0,0 L 2,0"
           style="fill:none;stroke:context-fill;stroke-width:1.15;stroke-linecap:square" />
        <path
           id="path2302"
           d="M 0,0 L 13,4 L 9,0 13,-4 L 0,0 z "
           style="fill:context-stroke;fill-rule:evenodd;stroke:none" />
        <path
           id="path2304"
           d="M 0,-4 L 0,40"
           style="fill:none;stroke:context-stroke;stroke-width:1;stroke-linecap:square" />
      </g>
    </marker>
    <marker
       style="overflow:visible"
       id="Arrow2Lend"
       refX="0"
       refY="0"
       orient="auto"
       inkscape:stockid="Arrow2Lend"
       inkscape:isstock="true">
      <path
         transform="matrix(-1.1,0,0,-1.1,-1.1,0)"
         d="M 8.7185878,4.0337352 -2.2072895,0.01601326 8.7185884,-4.0017078 c -1.7454984,2.3720609 -1.7354408,5.6174519 -6e-7,8.035443 z"
         style="fill:context-stroke;fill-rule:evenodd;stroke-width:0.625;stroke-linejoin:round"
         id="path1520" />
    </marker>
    <g
       id="g7590">
      <symbol
         overflow="visible"
         id="symbol4333">
        <path
           style="stroke:none"
           d=""
           id="path2460" />
      </symbol>
      <symbol
         overflow="visible"
         id="symbol2370">
        <path
           style="stroke:none"
           d="M 2.625,-4.359375 C 1.390625,-4.0625 0.421875,-2.765625 0.421875,-1.5625 0.421875,-0.59375 1.0625,0.125 2,0.125 c 1.15625,0 1.984375,-1.578125 1.984375,-2.953125 0,-0.90625 -0.390625,-1.40625 -0.734375,-1.84375 C 2.890625,-5.125 2.296875,-5.875 2.296875,-6.3125 c 0,-0.21875 0.203125,-0.453125 0.546875,-0.453125 0.3125,0 0.5,0.125 0.71875,0.265625 0.203125,0.125 0.390625,0.25 0.546875,0.25 C 4.359375,-6.25 4.5,-6.484375 4.5,-6.65625 4.5,-6.875 4.34375,-6.890625 3.984375,-6.984375 3.46875,-7.09375 3.328125,-7.09375 3.171875,-7.09375 c -0.78125,0 -1.140625,0.4375 -1.140625,1.03125 0,0.546875 0.296875,1.09375 0.59375,1.703125 z m 0.125,0.21875 c 0.25,0.46875 0.546875,1 0.546875,1.71875 0,0.65625 -0.375,2.328125 -1.296875,2.328125 -0.546875,0 -0.96875,-0.421875 -0.96875,-1.1875 0,-0.625 0.375,-2.5 1.71875,-2.859375 z m 0,0"
           id="path540" />
      </symbol>
      <symbol
         overflow="visible"
         id="symbol621">
        <path
           style="stroke:none"
           d="m 2.046875,-3.984375 h 0.9375 c 0.203125,0 0.3125,0 0.3125,-0.203125 0,-0.109375 -0.109375,-0.109375 -0.28125,-0.109375 h -0.875 C 2.5,-5.71875 2.546875,-5.90625 2.546875,-5.96875 c 0,-0.171875 -0.125,-0.265625 -0.296875,-0.265625 -0.03125,0 -0.3125,0 -0.390625,0.359375 L 1.46875,-4.296875 h -0.9375 c -0.203125,0 -0.296875,0 -0.296875,0.1875 0,0.125 0.078125,0.125 0.28125,0.125 h 0.875 C 0.671875,-1.15625 0.625,-0.984375 0.625,-0.8125 0.625,-0.265625 1,0.109375 1.546875,0.109375 2.5625,0.109375 3.125,-1.34375 3.125,-1.421875 3.125,-1.53125 3.046875,-1.53125 3.015625,-1.53125 2.921875,-1.53125 2.90625,-1.5 2.859375,-1.390625 2.4375,-0.34375 1.90625,-0.109375 1.5625,-0.109375 c -0.203125,0 -0.3125,-0.125 -0.3125,-0.453125 0,-0.25 0.03125,-0.3125 0.0625,-0.484375 z m 0,0"
           id="path3948" />
      </symbol>
    </g>
    <g
       id="g9204">
      <symbol
         overflow="visible"
         id="symbol1548">
        <path
           style="stroke:none"
           d=""
           id="path7202" />
      </symbol>
      <symbol
         overflow="visible"
         id="symbol9142">
        <path
           style="stroke:none"
           d="M 2.625,-4.359375 C 1.390625,-4.0625 0.421875,-2.765625 0.421875,-1.5625 0.421875,-0.59375 1.0625,0.125 2,0.125 c 1.15625,0 1.984375,-1.578125 1.984375,-2.953125 0,-0.90625 -0.390625,-1.40625 -0.734375,-1.84375 C 2.890625,-5.125 2.296875,-5.875 2.296875,-6.3125 c 0,-0.21875 0.203125,-0.453125 0.546875,-0.453125 0.3125,0 0.5,0.125 0.71875,0.265625 0.203125,0.125 0.390625,0.25 0.546875,0.25 C 4.359375,-6.25 4.5,-6.484375 4.5,-6.65625 4.5,-6.875 4.34375,-6.890625 3.984375,-6.984375 3.46875,-7.09375 3.328125,-7.09375 3.171875,-7.09375 c -0.78125,0 -1.140625,0.4375 -1.140625,1.03125 0,0.546875 0.296875,1.09375 0.59375,1.703125 z m 0.125,0.21875 c 0.25,0.46875 0.546875,1 0.546875,1.71875 0,0.65625 -0.375,2.328125 -1.296875,2.328125 -0.546875,0 -0.96875,-0.421875 -0.96875,-1.1875 0,-0.625 0.375,-2.5 1.71875,-2.859375 z m 0,0"
           id="path6446" />
      </symbol>
      <symbol
         overflow="visible"
         id="symbol4491">
        <path
           style="stroke:none"
           d="m 2.046875,-3.984375 h 0.9375 c 0.203125,0 0.3125,0 0.3125,-0.203125 0,-0.109375 -0.109375,-0.109375 -0.28125,-0.109375 h -0.875 C 2.5,-5.71875 2.546875,-5.90625 2.546875,-5.96875 c 0,-0.171875 -0.125,-0.265625 -0.296875,-0.265625 -0.03125,0 -0.3125,0 -0.390625,0.359375 L 1.46875,-4.296875 h -0.9375 c -0.203125,0 -0.296875,0 -0.296875,0.1875 0,0.125 0.078125,0.125 0.28125,0.125 h 0.875 C 0.671875,-1.15625 0.625,-0.984375 0.625,-0.8125 0.625,-0.265625 1,0.109375 1.546875,0.109375 2.5625,0.109375 3.125,-1.34375 3.125,-1.421875 3.125,-1.53125 3.046875,-1.53125 3.015625,-1.53125 2.921875,-1.53125 2.90625,-1.5 2.859375,-1.390625 2.4375,-0.34375 1.90625,-0.109375 1.5625,-0.109375 c -0.203125,0 -0.3125,-0.125 -0.3125,-0.453125 0,-0.25 0.03125,-0.3125 0.0625,-0.484375 z m 0,0"
           id="path9789" />
      </symbol>
    </g>
    <g
       id="g1861">
      <symbol
         overflow="visible"
         id="symbol1008">
        <path
           style="stroke:none"
           d=""
           id="path7895" />
      </symbol>
      <symbol
         overflow="visible"
         id="symbol6299">
        <path
           style="stroke:none"
           d="M 2.625,-4.359375 C 1.390625,-4.0625 0.421875,-2.765625 0.421875,-1.5625 0.421875,-0.59375 1.0625,0.125 2,0.125 c 1.15625,0 1.984375,-1.578125 1.984375,-2.953125 0,-0.90625 -0.390625,-1.40625 -0.734375,-1.84375 C 2.890625,-5.125 2.296875,-5.875 2.296875,-6.3125 c 0,-0.21875 0.203125,-0.453125 0.546875,-0.453125 0.3125,0 0.5,0.125 0.71875,0.265625 0.203125,0.125 0.390625,0.25 0.546875,0.25 C 4.359375,-6.25 4.5,-6.484375 4.5,-6.65625 4.5,-6.875 4.34375,-6.890625 3.984375,-6.984375 3.46875,-7.09375 3.328125,-7.09375 3.171875,-7.09375 c -0.78125,0 -1.140625,0.4375 -1.140625,1.03125 0,0.546875 0.296875,1.09375 0.59375,1.703125 z m 0.125,0.21875 c 0.25,0.46875 0.546875,1 0.546875,1.71875 0,0.65625 -0.375,2.328125 -1.296875,2.328125 -0.546875,0 -0.96875,-0.421875 -0.96875,-1.1875 0,-0.625 0.375,-2.5 1.71875,-2.859375 z m 0,0"
           id="path2607" />
      </symbol>
      <symbol
         overflow="visible"
         id="symbol9764">
        <path
           style="stroke:none"
           d="m 2.046875,-3.984375 h 0.9375 c 0.203125,0 0.3125,0 0.3125,-0.203125 0,-0.109375 -0.109375,-0.109375 -0.28125,-0.109375 h -0.875 C 2.5,-5.71875 2.546875,-5.90625 2.546875,-5.96875 c 0,-0.171875 -0.125,-0.265625 -0.296875,-0.265625 -0.03125,0 -0.3125,0 -0.390625,0.359375 L 1.46875,-4.296875 h -0.9375 c -0.203125,0 -0.296875,0 -0.296875,0.1875 0,0.125 0.078125,0.125 0.28125,0.125 h 0.875 C 0.671875,-1.15625 0.625,-0.984375 0.625,-0.8125 0.625,-0.265625 1,0.109375 1.546875,0.109375 2.5625,0.109375 3.125,-1.34375 3.125,-1.421875 3.125,-1.53125 3.046875,-1.53125 3.015625,-1.53125 2.921875,-1.53125 2.90625,-1.5 2.859375,-1.390625 2.4375,-0.34375 1.90625,-0.109375 1.5625,-0.109375 c -0.203125,0 -0.3125,-0.125 -0.3125,-0.453125 0,-0.25 0.03125,-0.3125 0.0625,-0.484375 z m 0,0"
           id="path6695" />
      </symbol>
    </g>
    <g
       id="g1585">
      <symbol
         overflow="visible"
         id="symbol5158">
        <path
           style="stroke:none"
           d=""
           id="path7707" />
      </symbol>
      <symbol
         overflow="visible"
         id="symbol9954">
        <path
           style="stroke:none"
           d="m 4.40625,-6.953125 c -0.0625,-0.140625 -0.09375,-0.1875 -0.265625,-0.1875 -0.15625,0 -0.1875,0.046875 -0.25,0.1875 l -3.375,6.75 C 0.46875,-0.109375 0.46875,-0.09375 0.46875,-0.078125 0.46875,0 0.53125,0 0.6875,0 h 6.921875 c 0.15625,0 0.21875,0 0.21875,-0.078125 0,-0.015625 0,-0.03125 -0.046875,-0.125 z m -0.578125,0.8125 2.6875,5.390625 h -5.375 z m 0,0"
           id="path1507" />
      </symbol>
      <symbol
         overflow="visible"
         id="symbol8613">
        <path
           style="stroke:none"
           d=""
           id="path617" />
      </symbol>
      <symbol
         overflow="visible"
         id="symbol3456">
        <path
           style="stroke:none"
           d="m 2.046875,-3.984375 h 0.9375 c 0.203125,0 0.3125,0 0.3125,-0.203125 0,-0.109375 -0.109375,-0.109375 -0.28125,-0.109375 h -0.875 C 2.5,-5.71875 2.546875,-5.90625 2.546875,-5.96875 c 0,-0.171875 -0.125,-0.265625 -0.296875,-0.265625 -0.03125,0 -0.3125,0 -0.390625,0.359375 L 1.46875,-4.296875 h -0.9375 c -0.203125,0 -0.296875,0 -0.296875,0.1875 0,0.125 0.078125,0.125 0.28125,0.125 h 0.875 C 0.671875,-1.15625 0.625,-0.984375 0.625,-0.8125 0.625,-0.265625 1,0.109375 1.546875,0.109375 2.5625,0.109375 3.125,-1.34375 3.125,-1.421875 3.125,-1.53125 3.046875,-1.53125 3.015625,-1.53125 2.921875,-1.53125 2.90625,-1.5 2.859375,-1.390625 2.4375,-0.34375 1.90625,-0.109375 1.5625,-0.109375 c -0.203125,0 -0.3125,-0.125 -0.3125,-0.453125 0,-0.25 0.03125,-0.3125 0.0625,-0.484375 z m 0,0"
           id="path200" />
      </symbol>
    </g>
    <g
       id="g2389">
      <symbol
         overflow="visible"
         id="symbol3698">
        <path
           style="stroke:none;"
           d=""
           id="path8445" />
      </symbol>
      <symbol
         overflow="visible"
         id="symbol8612">
        <path
           style="stroke:none;"
           d="M 2.046875 -3.984375 L 2.984375 -3.984375 C 3.1875 -3.984375 3.296875 -3.984375 3.296875 -4.1875 C 3.296875 -4.296875 3.1875 -4.296875 3.015625 -4.296875 L 2.140625 -4.296875 C 2.5 -5.71875 2.546875 -5.90625 2.546875 -5.96875 C 2.546875 -6.140625 2.421875 -6.234375 2.25 -6.234375 C 2.21875 -6.234375 1.9375 -6.234375 1.859375 -5.875 L 1.46875 -4.296875 L 0.53125 -4.296875 C 0.328125 -4.296875 0.234375 -4.296875 0.234375 -4.109375 C 0.234375 -3.984375 0.3125 -3.984375 0.515625 -3.984375 L 1.390625 -3.984375 C 0.671875 -1.15625 0.625 -0.984375 0.625 -0.8125 C 0.625 -0.265625 1 0.109375 1.546875 0.109375 C 2.5625 0.109375 3.125 -1.34375 3.125 -1.421875 C 3.125 -1.53125 3.046875 -1.53125 3.015625 -1.53125 C 2.921875 -1.53125 2.90625 -1.5 2.859375 -1.390625 C 2.4375 -0.34375 1.90625 -0.109375 1.5625 -0.109375 C 1.359375 -0.109375 1.25 -0.234375 1.25 -0.5625 C 1.25 -0.8125 1.28125 -0.875 1.3125 -1.046875 Z M 2.046875 -3.984375 "
           id="path8980" />
      </symbol>
      <symbol
         overflow="visible"
         id="symbol2597">
        <path
           style="stroke:none;"
           d=""
           id="path1091" />
      </symbol>
      <symbol
         overflow="visible"
         id="symbol2048">
        <path
           style="stroke:none;"
           d="M 2.265625 -4.359375 C 2.265625 -4.46875 2.171875 -4.625 1.984375 -4.625 C 1.796875 -4.625 1.59375 -4.4375 1.59375 -4.234375 C 1.59375 -4.125 1.671875 -3.96875 1.875 -3.96875 C 2.0625 -3.96875 2.265625 -4.171875 2.265625 -4.359375 Z M 0.84375 -0.8125 C 0.8125 -0.71875 0.78125 -0.640625 0.78125 -0.515625 C 0.78125 -0.1875 1.046875 0.0625 1.4375 0.0625 C 2.125 0.0625 2.4375 -0.890625 2.4375 -1 C 2.4375 -1.09375 2.34375 -1.09375 2.328125 -1.09375 C 2.234375 -1.09375 2.21875 -1.046875 2.1875 -0.96875 C 2.03125 -0.40625 1.734375 -0.125 1.453125 -0.125 C 1.3125 -0.125 1.28125 -0.21875 1.28125 -0.375 C 1.28125 -0.53125 1.328125 -0.65625 1.390625 -0.8125 C 1.46875 -1 1.546875 -1.1875 1.609375 -1.375 C 1.671875 -1.546875 1.9375 -2.171875 1.953125 -2.265625 C 1.984375 -2.328125 2 -2.40625 2 -2.484375 C 2 -2.8125 1.71875 -3.078125 1.34375 -3.078125 C 0.640625 -3.078125 0.328125 -2.125 0.328125 -2 C 0.328125 -1.921875 0.421875 -1.921875 0.453125 -1.921875 C 0.546875 -1.921875 0.546875 -1.953125 0.578125 -2.03125 C 0.75 -2.625 1.0625 -2.875 1.3125 -2.875 C 1.421875 -2.875 1.484375 -2.828125 1.484375 -2.640625 C 1.484375 -2.46875 1.453125 -2.375 1.28125 -1.9375 Z M 0.84375 -0.8125 "
           id="path906" />
      </symbol>
    </g>
    <g
       id="g476">
      <symbol
         overflow="visible"
         id="symbol7206">
        <path
           style="stroke:none;"
           d=""
           id="path1049" />
      </symbol>
      <symbol
         overflow="visible"
         id="symbol6497">
        <path
           style="stroke:none;"
           d="M 2.046875 -3.984375 L 2.984375 -3.984375 C 3.1875 -3.984375 3.296875 -3.984375 3.296875 -4.1875 C 3.296875 -4.296875 3.1875 -4.296875 3.015625 -4.296875 L 2.140625 -4.296875 C 2.5 -5.71875 2.546875 -5.90625 2.546875 -5.96875 C 2.546875 -6.140625 2.421875 -6.234375 2.25 -6.234375 C 2.21875 -6.234375 1.9375 -6.234375 1.859375 -5.875 L 1.46875 -4.296875 L 0.53125 -4.296875 C 0.328125 -4.296875 0.234375 -4.296875 0.234375 -4.109375 C 0.234375 -3.984375 0.3125 -3.984375 0.515625 -3.984375 L 1.390625 -3.984375 C 0.671875 -1.15625 0.625 -0.984375 0.625 -0.8125 C 0.625 -0.265625 1 0.109375 1.546875 0.109375 C 2.5625 0.109375 3.125 -1.34375 3.125 -1.421875 C 3.125 -1.53125 3.046875 -1.53125 3.015625 -1.53125 C 2.921875 -1.53125 2.90625 -1.5 2.859375 -1.390625 C 2.4375 -0.34375 1.90625 -0.109375 1.5625 -0.109375 C 1.359375 -0.109375 1.25 -0.234375 1.25 -0.5625 C 1.25 -0.8125 1.28125 -0.875 1.3125 -1.046875 Z M 2.046875 -3.984375 "
           id="path4296" />
      </symbol>
      <symbol
         overflow="visible"
         id="symbol8323">
        <path
           style="stroke:none;"
           d=""
           id="path9244" />
      </symbol>
      <symbol
         overflow="visible"
         id="symbol7363">
        <path
           style="stroke:none;"
           d="M 2.265625 -4.359375 C 2.265625 -4.46875 2.171875 -4.625 1.984375 -4.625 C 1.796875 -4.625 1.59375 -4.4375 1.59375 -4.234375 C 1.59375 -4.125 1.671875 -3.96875 1.875 -3.96875 C 2.0625 -3.96875 2.265625 -4.171875 2.265625 -4.359375 Z M 0.84375 -0.8125 C 0.8125 -0.71875 0.78125 -0.640625 0.78125 -0.515625 C 0.78125 -0.1875 1.046875 0.0625 1.4375 0.0625 C 2.125 0.0625 2.4375 -0.890625 2.4375 -1 C 2.4375 -1.09375 2.34375 -1.09375 2.328125 -1.09375 C 2.234375 -1.09375 2.21875 -1.046875 2.1875 -0.96875 C 2.03125 -0.40625 1.734375 -0.125 1.453125 -0.125 C 1.3125 -0.125 1.28125 -0.21875 1.28125 -0.375 C 1.28125 -0.53125 1.328125 -0.65625 1.390625 -0.8125 C 1.46875 -1 1.546875 -1.1875 1.609375 -1.375 C 1.671875 -1.546875 1.9375 -2.171875 1.953125 -2.265625 C 1.984375 -2.328125 2 -2.40625 2 -2.484375 C 2 -2.8125 1.71875 -3.078125 1.34375 -3.078125 C 0.640625 -3.078125 0.328125 -2.125 0.328125 -2 C 0.328125 -1.921875 0.421875 -1.921875 0.453125 -1.921875 C 0.546875 -1.921875 0.546875 -1.953125 0.578125 -2.03125 C 0.75 -2.625 1.0625 -2.875 1.3125 -2.875 C 1.421875 -2.875 1.484375 -2.828125 1.484375 -2.640625 C 1.484375 -2.46875 1.453125 -2.375 1.28125 -1.9375 Z M 0.84375 -0.8125 "
           id="path6719" />
      </symbol>
    </g>
    <g
       id="g7116">
      <symbol
         overflow="visible"
         id="symbol3992">
        <path
           style="stroke:none;"
           d=""
           id="path6784" />
      </symbol>
      <symbol
         overflow="visible"
         id="symbol9761">
        <path
           style="stroke:none;"
           d="M 2.046875 -3.984375 L 2.984375 -3.984375 C 3.1875 -3.984375 3.296875 -3.984375 3.296875 -4.1875 C 3.296875 -4.296875 3.1875 -4.296875 3.015625 -4.296875 L 2.140625 -4.296875 C 2.5 -5.71875 2.546875 -5.90625 2.546875 -5.96875 C 2.546875 -6.140625 2.421875 -6.234375 2.25 -6.234375 C 2.21875 -6.234375 1.9375 -6.234375 1.859375 -5.875 L 1.46875 -4.296875 L 0.53125 -4.296875 C 0.328125 -4.296875 0.234375 -4.296875 0.234375 -4.109375 C 0.234375 -3.984375 0.3125 -3.984375 0.515625 -3.984375 L 1.390625 -3.984375 C 0.671875 -1.15625 0.625 -0.984375 0.625 -0.8125 C 0.625 -0.265625 1 0.109375 1.546875 0.109375 C 2.5625 0.109375 3.125 -1.34375 3.125 -1.421875 C 3.125 -1.53125 3.046875 -1.53125 3.015625 -1.53125 C 2.921875 -1.53125 2.90625 -1.5 2.859375 -1.390625 C 2.4375 -0.34375 1.90625 -0.109375 1.5625 -0.109375 C 1.359375 -0.109375 1.25 -0.234375 1.25 -0.5625 C 1.25 -0.8125 1.28125 -0.875 1.3125 -1.046875 Z M 2.046875 -3.984375 "
           id="path7068" />
      </symbol>
      <symbol
         overflow="visible"
         id="symbol1968">
        <path
           style="stroke:none;"
           d=""
           id="path9277" />
      </symbol>
      <symbol
         overflow="visible"
         id="symbol8869">
        <path
           style="stroke:none;"
           d="M 2.265625 -4.359375 C 2.265625 -4.46875 2.171875 -4.625 1.984375 -4.625 C 1.796875 -4.625 1.59375 -4.4375 1.59375 -4.234375 C 1.59375 -4.125 1.671875 -3.96875 1.875 -3.96875 C 2.0625 -3.96875 2.265625 -4.171875 2.265625 -4.359375 Z M 0.84375 -0.8125 C 0.8125 -0.71875 0.78125 -0.640625 0.78125 -0.515625 C 0.78125 -0.1875 1.046875 0.0625 1.4375 0.0625 C 2.125 0.0625 2.4375 -0.890625 2.4375 -1 C 2.4375 -1.09375 2.34375 -1.09375 2.328125 -1.09375 C 2.234375 -1.09375 2.21875 -1.046875 2.1875 -0.96875 C 2.03125 -0.40625 1.734375 -0.125 1.453125 -0.125 C 1.3125 -0.125 1.28125 -0.21875 1.28125 -0.375 C 1.28125 -0.53125 1.328125 -0.65625 1.390625 -0.8125 C 1.46875 -1 1.546875 -1.1875 1.609375 -1.375 C 1.671875 -1.546875 1.9375 -2.171875 1.953125 -2.265625 C 1.984375 -2.328125 2 -2.40625 2 -2.484375 C 2 -2.8125 1.71875 -3.078125 1.34375 -3.078125 C 0.640625 -3.078125 0.328125 -2.125 0.328125 -2 C 0.328125 -1.921875 0.421875 -1.921875 0.453125 -1.921875 C 0.546875 -1.921875 0.546875 -1.953125 0.578125 -2.03125 C 0.75 -2.625 1.0625 -2.875 1.3125 -2.875 C 1.421875 -2.875 1.484375 -2.828125 1.484375 -2.640625 C 1.484375 -2.46875 1.453125 -2.375 1.28125 -1.9375 Z M 0.84375 -0.8125 "
           id="path2295" />
      </symbol>
    </g>
    <g
       id="g327">
      <symbol
         overflow="visible"
         id="symbol4401">
        <path
           style="stroke:none;"
           d=""
           id="path3417" />
      </symbol>
      <symbol
         overflow="visible"
         id="symbol8655">
        <path
           style="stroke:none;"
           d="M 2.046875 -3.984375 L 2.984375 -3.984375 C 3.1875 -3.984375 3.296875 -3.984375 3.296875 -4.1875 C 3.296875 -4.296875 3.1875 -4.296875 3.015625 -4.296875 L 2.140625 -4.296875 C 2.5 -5.71875 2.546875 -5.90625 2.546875 -5.96875 C 2.546875 -6.140625 2.421875 -6.234375 2.25 -6.234375 C 2.21875 -6.234375 1.9375 -6.234375 1.859375 -5.875 L 1.46875 -4.296875 L 0.53125 -4.296875 C 0.328125 -4.296875 0.234375 -4.296875 0.234375 -4.109375 C 0.234375 -3.984375 0.3125 -3.984375 0.515625 -3.984375 L 1.390625 -3.984375 C 0.671875 -1.15625 0.625 -0.984375 0.625 -0.8125 C 0.625 -0.265625 1 0.109375 1.546875 0.109375 C 2.5625 0.109375 3.125 -1.34375 3.125 -1.421875 C 3.125 -1.53125 3.046875 -1.53125 3.015625 -1.53125 C 2.921875 -1.53125 2.90625 -1.5 2.859375 -1.390625 C 2.4375 -0.34375 1.90625 -0.109375 1.5625 -0.109375 C 1.359375 -0.109375 1.25 -0.234375 1.25 -0.5625 C 1.25 -0.8125 1.28125 -0.875 1.3125 -1.046875 Z M 2.046875 -3.984375 "
           id="path242" />
      </symbol>
      <symbol
         overflow="visible"
         id="symbol5199">
        <path
           style="stroke:none;"
           d=""
           id="path612" />
      </symbol>
      <symbol
         overflow="visible"
         id="symbol3459">
        <path
           style="stroke:none;"
           d="M 2.265625 -4.359375 C 2.265625 -4.46875 2.171875 -4.625 1.984375 -4.625 C 1.796875 -4.625 1.59375 -4.4375 1.59375 -4.234375 C 1.59375 -4.125 1.671875 -3.96875 1.875 -3.96875 C 2.0625 -3.96875 2.265625 -4.171875 2.265625 -4.359375 Z M 0.84375 -0.8125 C 0.8125 -0.71875 0.78125 -0.640625 0.78125 -0.515625 C 0.78125 -0.1875 1.046875 0.0625 1.4375 0.0625 C 2.125 0.0625 2.4375 -0.890625 2.4375 -1 C 2.4375 -1.09375 2.34375 -1.09375 2.328125 -1.09375 C 2.234375 -1.09375 2.21875 -1.046875 2.1875 -0.96875 C 2.03125 -0.40625 1.734375 -0.125 1.453125 -0.125 C 1.3125 -0.125 1.28125 -0.21875 1.28125 -0.375 C 1.28125 -0.53125 1.328125 -0.65625 1.390625 -0.8125 C 1.46875 -1 1.546875 -1.1875 1.609375 -1.375 C 1.671875 -1.546875 1.9375 -2.171875 1.953125 -2.265625 C 1.984375 -2.328125 2 -2.40625 2 -2.484375 C 2 -2.8125 1.71875 -3.078125 1.34375 -3.078125 C 0.640625 -3.078125 0.328125 -2.125 0.328125 -2 C 0.328125 -1.921875 0.421875 -1.921875 0.453125 -1.921875 C 0.546875 -1.921875 0.546875 -1.953125 0.578125 -2.03125 C 0.75 -2.625 1.0625 -2.875 1.3125 -2.875 C 1.421875 -2.875 1.484375 -2.828125 1.484375 -2.640625 C 1.484375 -2.46875 1.453125 -2.375 1.28125 -1.9375 Z M 0.84375 -0.8125 "
           id="path7507" />
      </symbol>
    </g>
    <g
       id="g3679">
      <symbol
         overflow="visible"
         id="symbol8067">
        <path
           style="stroke:none;"
           d=""
           id="path3109" />
      </symbol>
      <symbol
         overflow="visible"
         id="symbol3748">
        <path
           style="stroke:none;"
           d="M 2.046875 -3.984375 L 2.984375 -3.984375 C 3.1875 -3.984375 3.296875 -3.984375 3.296875 -4.1875 C 3.296875 -4.296875 3.1875 -4.296875 3.015625 -4.296875 L 2.140625 -4.296875 C 2.5 -5.71875 2.546875 -5.90625 2.546875 -5.96875 C 2.546875 -6.140625 2.421875 -6.234375 2.25 -6.234375 C 2.21875 -6.234375 1.9375 -6.234375 1.859375 -5.875 L 1.46875 -4.296875 L 0.53125 -4.296875 C 0.328125 -4.296875 0.234375 -4.296875 0.234375 -4.109375 C 0.234375 -3.984375 0.3125 -3.984375 0.515625 -3.984375 L 1.390625 -3.984375 C 0.671875 -1.15625 0.625 -0.984375 0.625 -0.8125 C 0.625 -0.265625 1 0.109375 1.546875 0.109375 C 2.5625 0.109375 3.125 -1.34375 3.125 -1.421875 C 3.125 -1.53125 3.046875 -1.53125 3.015625 -1.53125 C 2.921875 -1.53125 2.90625 -1.5 2.859375 -1.390625 C 2.4375 -0.34375 1.90625 -0.109375 1.5625 -0.109375 C 1.359375 -0.109375 1.25 -0.234375 1.25 -0.5625 C 1.25 -0.8125 1.28125 -0.875 1.3125 -1.046875 Z M 2.046875 -3.984375 "
           id="path4302" />
      </symbol>
      <symbol
         overflow="visible"
         id="symbol3220">
        <path
           style="stroke:none;"
           d=""
           id="path9333" />
      </symbol>
      <symbol
         overflow="visible"
         id="symbol8139">
        <path
           style="stroke:none;"
           d="M 2.875 -4.203125 C 2.9375 -4.453125 2.953125 -4.515625 3.484375 -4.515625 C 3.65625 -4.515625 3.734375 -4.515625 3.734375 -4.65625 C 3.734375 -4.71875 3.6875 -4.765625 3.625 -4.765625 C 3.484375 -4.765625 3.296875 -4.734375 3.15625 -4.734375 C 3 -4.734375 2.84375 -4.734375 2.6875 -4.734375 C 2.6875 -4.734375 2.203125 -4.734375 2.203125 -4.734375 C 2.046875 -4.734375 1.875 -4.765625 1.71875 -4.765625 C 1.671875 -4.765625 1.578125 -4.765625 1.578125 -4.609375 C 1.578125 -4.515625 1.65625 -4.515625 1.8125 -4.515625 C 1.8125 -4.515625 1.953125 -4.515625 2.0625 -4.5 C 2.203125 -4.484375 2.265625 -4.46875 2.265625 -4.390625 C 2.265625 -4.359375 2.25 -4.3125 2.234375 -4.25 L 1.296875 -0.546875 C 1.25 -0.328125 1.21875 -0.25 0.703125 -0.25 C 0.515625 -0.25 0.453125 -0.25 0.453125 -0.09375 C 0.453125 -0.09375 0.453125 0 0.5625 0 C 0.765625 0 1.296875 -0.03125 1.5 -0.03125 L 1.984375 -0.015625 C 2.125 -0.015625 2.3125 0 2.453125 0 C 2.5 0 2.609375 0 2.609375 -0.15625 C 2.609375 -0.25 2.515625 -0.25 2.390625 -0.25 C 2.375 -0.25 2.21875 -0.25 2.078125 -0.265625 C 1.921875 -0.28125 1.921875 -0.3125 1.921875 -0.375 C 1.921875 -0.375 1.921875 -0.421875 1.953125 -0.515625 Z M 2.875 -4.203125 "
           id="path511" />
      </symbol>
      <symbol
         overflow="visible"
         id="symbol5206">
        <path
           style="stroke:none;"
           d=""
           id="path7939" />
      </symbol>
      <symbol
         overflow="visible"
         id="symbol1503">
        <path
           style="stroke:none;"
           d="M 1.765625 -4.40625 L 0.375 -4.296875 L 0.375 -3.984375 C 1.015625 -3.984375 1.109375 -3.921875 1.109375 -3.4375 L 1.109375 -0.75 C 1.109375 -0.3125 1 -0.3125 0.328125 -0.3125 L 0.328125 0 C 0.640625 -0.015625 1.1875 -0.03125 1.421875 -0.03125 C 1.78125 -0.03125 2.125 -0.015625 2.46875 0 L 2.46875 -0.3125 C 1.796875 -0.3125 1.765625 -0.359375 1.765625 -0.75 Z M 1.796875 -6.140625 C 1.796875 -6.453125 1.5625 -6.671875 1.28125 -6.671875 C 0.96875 -6.671875 0.75 -6.40625 0.75 -6.140625 C 0.75 -5.875 0.96875 -5.609375 1.28125 -5.609375 C 1.5625 -5.609375 1.796875 -5.828125 1.796875 -6.140625 Z M 1.796875 -6.140625 "
           id="path2678" />
      </symbol>
      <symbol
         overflow="visible"
         id="symbol5965">
        <path
           style="stroke:none;"
           d="M 1.09375 -3.421875 L 1.09375 -0.75 C 1.09375 -0.3125 0.984375 -0.3125 0.3125 -0.3125 L 0.3125 0 C 0.671875 -0.015625 1.171875 -0.03125 1.453125 -0.03125 C 1.703125 -0.03125 2.21875 -0.015625 2.5625 0 L 2.5625 -0.3125 C 1.890625 -0.3125 1.78125 -0.3125 1.78125 -0.75 L 1.78125 -2.59375 C 1.78125 -3.625 2.5 -4.1875 3.125 -4.1875 C 3.765625 -4.1875 3.875 -3.65625 3.875 -3.078125 L 3.875 -0.75 C 3.875 -0.3125 3.765625 -0.3125 3.09375 -0.3125 L 3.09375 0 C 3.4375 -0.015625 3.953125 -0.03125 4.21875 -0.03125 C 4.46875 -0.03125 5 -0.015625 5.328125 0 L 5.328125 -0.3125 C 4.8125 -0.3125 4.5625 -0.3125 4.5625 -0.609375 L 4.5625 -2.515625 C 4.5625 -3.375 4.5625 -3.671875 4.25 -4.03125 C 4.109375 -4.203125 3.78125 -4.40625 3.203125 -4.40625 C 2.46875 -4.40625 2 -3.984375 1.71875 -3.359375 L 1.71875 -4.40625 L 0.3125 -4.296875 L 0.3125 -3.984375 C 1.015625 -3.984375 1.09375 -3.921875 1.09375 -3.421875 Z M 1.09375 -3.421875 "
           id="path7658" />
      </symbol>
      <symbol
         overflow="visible"
         id="symbol6378">
        <path
           style="stroke:none;"
           d="M 4.6875 -2.140625 C 4.6875 -3.40625 3.703125 -4.46875 2.5 -4.46875 C 1.25 -4.46875 0.28125 -3.375 0.28125 -2.140625 C 0.28125 -0.84375 1.3125 0.109375 2.484375 0.109375 C 3.6875 0.109375 4.6875 -0.875 4.6875 -2.140625 Z M 2.5 -0.140625 C 2.0625 -0.140625 1.625 -0.34375 1.359375 -0.8125 C 1.109375 -1.25 1.109375 -1.859375 1.109375 -2.21875 C 1.109375 -2.609375 1.109375 -3.140625 1.34375 -3.578125 C 1.609375 -4.03125 2.078125 -4.25 2.484375 -4.25 C 2.921875 -4.25 3.34375 -4.03125 3.609375 -3.59375 C 3.875 -3.171875 3.875 -2.59375 3.875 -2.21875 C 3.875 -1.859375 3.875 -1.3125 3.65625 -0.875 C 3.421875 -0.421875 2.984375 -0.140625 2.5 -0.140625 Z M 2.5 -0.140625 "
           id="path1158" />
      </symbol>
    </g>
    <g
       id="g2997">
      <symbol
         overflow="visible"
         id="symbol113">
        <path
           style="stroke:none;"
           d=""
           id="path7959" />
      </symbol>
      <symbol
         overflow="visible"
         id="symbol1280">
        <path
           style="stroke:none;"
           d="M 2.046875 -3.984375 L 2.984375 -3.984375 C 3.1875 -3.984375 3.296875 -3.984375 3.296875 -4.1875 C 3.296875 -4.296875 3.1875 -4.296875 3.015625 -4.296875 L 2.140625 -4.296875 C 2.5 -5.71875 2.546875 -5.90625 2.546875 -5.96875 C 2.546875 -6.140625 2.421875 -6.234375 2.25 -6.234375 C 2.21875 -6.234375 1.9375 -6.234375 1.859375 -5.875 L 1.46875 -4.296875 L 0.53125 -4.296875 C 0.328125 -4.296875 0.234375 -4.296875 0.234375 -4.109375 C 0.234375 -3.984375 0.3125 -3.984375 0.515625 -3.984375 L 1.390625 -3.984375 C 0.671875 -1.15625 0.625 -0.984375 0.625 -0.8125 C 0.625 -0.265625 1 0.109375 1.546875 0.109375 C 2.5625 0.109375 3.125 -1.34375 3.125 -1.421875 C 3.125 -1.53125 3.046875 -1.53125 3.015625 -1.53125 C 2.921875 -1.53125 2.90625 -1.5 2.859375 -1.390625 C 2.4375 -0.34375 1.90625 -0.109375 1.5625 -0.109375 C 1.359375 -0.109375 1.25 -0.234375 1.25 -0.5625 C 1.25 -0.8125 1.28125 -0.875 1.3125 -1.046875 Z M 2.046875 -3.984375 "
           id="path8338" />
      </symbol>
      <symbol
         overflow="visible"
         id="symbol5461">
        <path
           style="stroke:none;"
           d=""
           id="path7003" />
      </symbol>
      <symbol
         overflow="visible"
         id="symbol4272">
        <path
           style="stroke:none;"
           d="M 2.875 -4.203125 C 2.9375 -4.453125 2.953125 -4.515625 3.484375 -4.515625 C 3.65625 -4.515625 3.734375 -4.515625 3.734375 -4.65625 C 3.734375 -4.71875 3.6875 -4.765625 3.625 -4.765625 C 3.484375 -4.765625 3.296875 -4.734375 3.15625 -4.734375 C 3 -4.734375 2.84375 -4.734375 2.6875 -4.734375 C 2.6875 -4.734375 2.203125 -4.734375 2.203125 -4.734375 C 2.046875 -4.734375 1.875 -4.765625 1.71875 -4.765625 C 1.671875 -4.765625 1.578125 -4.765625 1.578125 -4.609375 C 1.578125 -4.515625 1.65625 -4.515625 1.8125 -4.515625 C 1.8125 -4.515625 1.953125 -4.515625 2.0625 -4.5 C 2.203125 -4.484375 2.265625 -4.46875 2.265625 -4.390625 C 2.265625 -4.359375 2.25 -4.3125 2.234375 -4.25 L 1.296875 -0.546875 C 1.25 -0.328125 1.21875 -0.25 0.703125 -0.25 C 0.515625 -0.25 0.453125 -0.25 0.453125 -0.09375 C 0.453125 -0.09375 0.453125 0 0.5625 0 C 0.765625 0 1.296875 -0.03125 1.5 -0.03125 L 1.984375 -0.015625 C 2.125 -0.015625 2.3125 0 2.453125 0 C 2.5 0 2.609375 0 2.609375 -0.15625 C 2.609375 -0.25 2.515625 -0.25 2.390625 -0.25 C 2.375 -0.25 2.21875 -0.25 2.078125 -0.265625 C 1.921875 -0.28125 1.921875 -0.3125 1.921875 -0.375 C 1.921875 -0.375 1.921875 -0.421875 1.953125 -0.515625 Z M 2.875 -4.203125 "
           id="path5259" />
      </symbol>
      <symbol
         overflow="visible"
         id="symbol1042">
        <path
           style="stroke:none;"
           d=""
           id="path4655" />
      </symbol>
      <symbol
         overflow="visible"
         id="symbol6147">
        <path
           style="stroke:none;"
           d="M 1.765625 -4.40625 L 0.375 -4.296875 L 0.375 -3.984375 C 1.015625 -3.984375 1.109375 -3.921875 1.109375 -3.4375 L 1.109375 -0.75 C 1.109375 -0.3125 1 -0.3125 0.328125 -0.3125 L 0.328125 0 C 0.640625 -0.015625 1.1875 -0.03125 1.421875 -0.03125 C 1.78125 -0.03125 2.125 -0.015625 2.46875 0 L 2.46875 -0.3125 C 1.796875 -0.3125 1.765625 -0.359375 1.765625 -0.75 Z M 1.796875 -6.140625 C 1.796875 -6.453125 1.5625 -6.671875 1.28125 -6.671875 C 0.96875 -6.671875 0.75 -6.40625 0.75 -6.140625 C 0.75 -5.875 0.96875 -5.609375 1.28125 -5.609375 C 1.5625 -5.609375 1.796875 -5.828125 1.796875 -6.140625 Z M 1.796875 -6.140625 "
           id="path3779" />
      </symbol>
      <symbol
         overflow="visible"
         id="symbol2821">
        <path
           style="stroke:none;"
           d="M 1.09375 -3.421875 L 1.09375 -0.75 C 1.09375 -0.3125 0.984375 -0.3125 0.3125 -0.3125 L 0.3125 0 C 0.671875 -0.015625 1.171875 -0.03125 1.453125 -0.03125 C 1.703125 -0.03125 2.21875 -0.015625 2.5625 0 L 2.5625 -0.3125 C 1.890625 -0.3125 1.78125 -0.3125 1.78125 -0.75 L 1.78125 -2.59375 C 1.78125 -3.625 2.5 -4.1875 3.125 -4.1875 C 3.765625 -4.1875 3.875 -3.65625 3.875 -3.078125 L 3.875 -0.75 C 3.875 -0.3125 3.765625 -0.3125 3.09375 -0.3125 L 3.09375 0 C 3.4375 -0.015625 3.953125 -0.03125 4.21875 -0.03125 C 4.46875 -0.03125 5 -0.015625 5.328125 0 L 5.328125 -0.3125 C 4.8125 -0.3125 4.5625 -0.3125 4.5625 -0.609375 L 4.5625 -2.515625 C 4.5625 -3.375 4.5625 -3.671875 4.25 -4.03125 C 4.109375 -4.203125 3.78125 -4.40625 3.203125 -4.40625 C 2.46875 -4.40625 2 -3.984375 1.71875 -3.359375 L 1.71875 -4.40625 L 0.3125 -4.296875 L 0.3125 -3.984375 C 1.015625 -3.984375 1.09375 -3.921875 1.09375 -3.421875 Z M 1.09375 -3.421875 "
           id="path4593" />
      </symbol>
      <symbol
         overflow="visible"
         id="symbol9874">
        <path
           style="stroke:none;"
           d="M 4.6875 -2.140625 C 4.6875 -3.40625 3.703125 -4.46875 2.5 -4.46875 C 1.25 -4.46875 0.28125 -3.375 0.28125 -2.140625 C 0.28125 -0.84375 1.3125 0.109375 2.484375 0.109375 C 3.6875 0.109375 4.6875 -0.875 4.6875 -2.140625 Z M 2.5 -0.140625 C 2.0625 -0.140625 1.625 -0.34375 1.359375 -0.8125 C 1.109375 -1.25 1.109375 -1.859375 1.109375 -2.21875 C 1.109375 -2.609375 1.109375 -3.140625 1.34375 -3.578125 C 1.609375 -4.03125 2.078125 -4.25 2.484375 -4.25 C 2.921875 -4.25 3.34375 -4.03125 3.609375 -3.59375 C 3.875 -3.171875 3.875 -2.59375 3.875 -2.21875 C 3.875 -1.859375 3.875 -1.3125 3.65625 -0.875 C 3.421875 -0.421875 2.984375 -0.140625 2.5 -0.140625 Z M 2.5 -0.140625 "
           id="path5690" />
      </symbol>
    </g>
    <g
       id="g3876">
      <symbol
         overflow="visible"
         id="symbol3821">
        <path
           style="stroke:none;"
           d=""
           id="path5128" />
      </symbol>
      <symbol
         overflow="visible"
         id="symbol5510">
        <path
           style="stroke:none;"
           d="M 2.046875 -3.984375 L 2.984375 -3.984375 C 3.1875 -3.984375 3.296875 -3.984375 3.296875 -4.1875 C 3.296875 -4.296875 3.1875 -4.296875 3.015625 -4.296875 L 2.140625 -4.296875 C 2.5 -5.71875 2.546875 -5.90625 2.546875 -5.96875 C 2.546875 -6.140625 2.421875 -6.234375 2.25 -6.234375 C 2.21875 -6.234375 1.9375 -6.234375 1.859375 -5.875 L 1.46875 -4.296875 L 0.53125 -4.296875 C 0.328125 -4.296875 0.234375 -4.296875 0.234375 -4.109375 C 0.234375 -3.984375 0.3125 -3.984375 0.515625 -3.984375 L 1.390625 -3.984375 C 0.671875 -1.15625 0.625 -0.984375 0.625 -0.8125 C 0.625 -0.265625 1 0.109375 1.546875 0.109375 C 2.5625 0.109375 3.125 -1.34375 3.125 -1.421875 C 3.125 -1.53125 3.046875 -1.53125 3.015625 -1.53125 C 2.921875 -1.53125 2.90625 -1.5 2.859375 -1.390625 C 2.4375 -0.34375 1.90625 -0.109375 1.5625 -0.109375 C 1.359375 -0.109375 1.25 -0.234375 1.25 -0.5625 C 1.25 -0.8125 1.28125 -0.875 1.3125 -1.046875 Z M 2.046875 -3.984375 "
           id="path2809" />
      </symbol>
      <symbol
         overflow="visible"
         id="symbol3834">
        <path
           style="stroke:none;"
           d=""
           id="path5015" />
      </symbol>
      <symbol
         overflow="visible"
         id="symbol46">
        <path
           style="stroke:none;"
           d="M 3.0625 -4.359375 C 3.0625 -4.46875 2.96875 -4.625 2.78125 -4.625 C 2.578125 -4.625 2.390625 -4.421875 2.390625 -4.234375 C 2.390625 -4.125 2.46875 -3.96875 2.671875 -3.96875 C 2.859375 -3.96875 3.0625 -4.15625 3.0625 -4.359375 Z M 1.578125 0.34375 C 1.46875 0.828125 1.09375 1.21875 0.6875 1.21875 C 0.59375 1.21875 0.515625 1.21875 0.4375 1.1875 C 0.609375 1.09375 0.671875 0.9375 0.671875 0.828125 C 0.671875 0.65625 0.53125 0.578125 0.390625 0.578125 C 0.1875 0.578125 0 0.765625 0 0.984375 C 0 1.25 0.265625 1.421875 0.6875 1.421875 C 1.109375 1.421875 1.921875 1.171875 2.140625 0.328125 L 2.765625 -2.171875 C 2.78125 -2.25 2.796875 -2.3125 2.796875 -2.421875 C 2.796875 -2.796875 2.46875 -3.078125 2.0625 -3.078125 C 1.28125 -3.078125 0.84375 -2.109375 0.84375 -2 C 0.84375 -1.921875 0.9375 -1.921875 0.953125 -1.921875 C 1.03125 -1.921875 1.046875 -1.9375 1.09375 -2.046875 C 1.265625 -2.453125 1.625 -2.875 2.03125 -2.875 C 2.203125 -2.875 2.265625 -2.765625 2.265625 -2.53125 C 2.265625 -2.453125 2.265625 -2.359375 2.25 -2.328125 Z M 1.578125 0.34375 "
           id="path2390" />
      </symbol>
    </g>
    <g
       id="g2493">
      <symbol
         overflow="visible"
         id="symbol2444">
        <path
           style="stroke:none;"
           d=""
           id="path7276" />
      </symbol>
      <symbol
         overflow="visible"
         id="symbol5313">
        <path
           style="stroke:none;"
           d="M 2.046875 -3.984375 L 2.984375 -3.984375 C 3.1875 -3.984375 3.296875 -3.984375 3.296875 -4.1875 C 3.296875 -4.296875 3.1875 -4.296875 3.015625 -4.296875 L 2.140625 -4.296875 C 2.5 -5.71875 2.546875 -5.90625 2.546875 -5.96875 C 2.546875 -6.140625 2.421875 -6.234375 2.25 -6.234375 C 2.21875 -6.234375 1.9375 -6.234375 1.859375 -5.875 L 1.46875 -4.296875 L 0.53125 -4.296875 C 0.328125 -4.296875 0.234375 -4.296875 0.234375 -4.109375 C 0.234375 -3.984375 0.3125 -3.984375 0.515625 -3.984375 L 1.390625 -3.984375 C 0.671875 -1.15625 0.625 -0.984375 0.625 -0.8125 C 0.625 -0.265625 1 0.109375 1.546875 0.109375 C 2.5625 0.109375 3.125 -1.34375 3.125 -1.421875 C 3.125 -1.53125 3.046875 -1.53125 3.015625 -1.53125 C 2.921875 -1.53125 2.90625 -1.5 2.859375 -1.390625 C 2.4375 -0.34375 1.90625 -0.109375 1.5625 -0.109375 C 1.359375 -0.109375 1.25 -0.234375 1.25 -0.5625 C 1.25 -0.8125 1.28125 -0.875 1.3125 -1.046875 Z M 2.046875 -3.984375 "
           id="path4540" />
      </symbol>
      <symbol
         overflow="visible"
         id="symbol2172">
        <path
           style="stroke:none;"
           d=""
           id="path5150" />
      </symbol>
      <symbol
         overflow="visible"
         id="symbol3658">
        <path
           style="stroke:none;"
           d="M 2.1875 -4.625 C 2.1875 -4.640625 2.203125 -4.734375 2.203125 -4.734375 C 2.203125 -4.78125 2.1875 -4.84375 2.09375 -4.84375 C 1.953125 -4.84375 1.375 -4.78125 1.203125 -4.765625 C 1.15625 -4.765625 1.046875 -4.75 1.046875 -4.609375 C 1.046875 -4.515625 1.15625 -4.515625 1.234375 -4.515625 C 1.5625 -4.515625 1.5625 -4.453125 1.5625 -4.40625 C 1.5625 -4.359375 1.546875 -4.3125 1.546875 -4.25 L 0.5625 -0.3125 C 0.515625 -0.1875 0.515625 -0.171875 0.515625 -0.15625 C 0.515625 -0.046875 0.609375 0.0625 0.765625 0.0625 C 0.953125 0.0625 1.03125 -0.0625 1.078125 -0.21875 C 1.09375 -0.25 1.390625 -1.484375 1.421875 -1.578125 C 1.921875 -1.53125 2.3125 -1.359375 2.3125 -1 C 2.3125 -0.96875 2.3125 -0.9375 2.296875 -0.859375 C 2.265625 -0.765625 2.265625 -0.71875 2.265625 -0.640625 C 2.265625 -0.15625 2.671875 0.0625 3.015625 0.0625 C 3.6875 0.0625 3.890625 -0.984375 3.890625 -1 C 3.890625 -1.09375 3.8125 -1.09375 3.78125 -1.09375 C 3.6875 -1.09375 3.671875 -1.046875 3.640625 -0.921875 C 3.5625 -0.625 3.375 -0.125 3.03125 -0.125 C 2.84375 -0.125 2.78125 -0.296875 2.78125 -0.484375 C 2.78125 -0.609375 2.78125 -0.625 2.828125 -0.796875 C 2.84375 -0.828125 2.859375 -0.9375 2.859375 -1.015625 C 2.859375 -1.640625 2.03125 -1.734375 1.734375 -1.75 C 1.9375 -1.875 2.1875 -2.109375 2.3125 -2.21875 C 2.671875 -2.546875 3.015625 -2.875 3.40625 -2.875 C 3.484375 -2.875 3.578125 -2.859375 3.640625 -2.78125 C 3.34375 -2.734375 3.28125 -2.5 3.28125 -2.390625 C 3.28125 -2.25 3.390625 -2.140625 3.546875 -2.140625 C 3.75 -2.140625 3.953125 -2.296875 3.953125 -2.578125 C 3.953125 -2.8125 3.78125 -3.078125 3.421875 -3.078125 C 3.015625 -3.078125 2.65625 -2.78125 2.296875 -2.453125 C 2 -2.1875 1.78125 -1.96875 1.484375 -1.84375 Z M 2.1875 -4.625 "
           id="path1639" />
      </symbol>
    </g>
    <g
       id="g7558">
      <symbol
         overflow="visible"
         id="symbol4051">
        <path
           style="stroke:none;"
           d=""
           id="path2417" />
      </symbol>
      <symbol
         overflow="visible"
         id="symbol2543">
        <path
           style="stroke:none;"
           d="M 2.9375 -3.71875 L 4.609375 -3.71875 C 4.734375 -3.71875 5.09375 -3.71875 5.09375 -4.0625 C 5.09375 -4.296875 4.890625 -4.296875 4.6875 -4.296875 L 1.90625 -4.296875 C 1.703125 -4.296875 1.3125 -4.296875 0.875 -3.828125 C 0.546875 -3.46875 0.265625 -2.984375 0.265625 -2.9375 C 0.265625 -2.921875 0.265625 -2.828125 0.390625 -2.828125 C 0.46875 -2.828125 0.484375 -2.875 0.546875 -2.953125 C 1.03125 -3.71875 1.609375 -3.71875 1.8125 -3.71875 L 2.640625 -3.71875 L 1.671875 -0.515625 C 1.625 -0.40625 1.5625 -0.1875 1.5625 -0.15625 C 1.5625 -0.046875 1.640625 0.125 1.859375 0.125 C 2.1875 0.125 2.234375 -0.15625 2.265625 -0.3125 Z M 2.9375 -3.71875 "
           id="path7210" />
      </symbol>
      <symbol
         overflow="visible"
         id="symbol5622">
        <path
           style="stroke:none;"
           d=""
           id="path7094" />
      </symbol>
      <symbol
         overflow="visible"
         id="symbol8860">
        <path
           style="stroke:none;"
           d="M 3.0625 -4.359375 C 3.0625 -4.46875 2.96875 -4.625 2.78125 -4.625 C 2.578125 -4.625 2.390625 -4.421875 2.390625 -4.234375 C 2.390625 -4.125 2.46875 -3.96875 2.671875 -3.96875 C 2.859375 -3.96875 3.0625 -4.15625 3.0625 -4.359375 Z M 1.578125 0.34375 C 1.46875 0.828125 1.09375 1.21875 0.6875 1.21875 C 0.59375 1.21875 0.515625 1.21875 0.4375 1.1875 C 0.609375 1.09375 0.671875 0.9375 0.671875 0.828125 C 0.671875 0.65625 0.53125 0.578125 0.390625 0.578125 C 0.1875 0.578125 0 0.765625 0 0.984375 C 0 1.25 0.265625 1.421875 0.6875 1.421875 C 1.109375 1.421875 1.921875 1.171875 2.140625 0.328125 L 2.765625 -2.171875 C 2.78125 -2.25 2.796875 -2.3125 2.796875 -2.421875 C 2.796875 -2.796875 2.46875 -3.078125 2.0625 -3.078125 C 1.28125 -3.078125 0.84375 -2.109375 0.84375 -2 C 0.84375 -1.921875 0.9375 -1.921875 0.953125 -1.921875 C 1.03125 -1.921875 1.046875 -1.9375 1.09375 -2.046875 C 1.265625 -2.453125 1.625 -2.875 2.03125 -2.875 C 2.203125 -2.875 2.265625 -2.765625 2.265625 -2.53125 C 2.265625 -2.453125 2.265625 -2.359375 2.25 -2.328125 Z M 1.578125 0.34375 "
           id="path6037" />
      </symbol>
    </g>
  </defs>
  <g
     inkscape:label="Layer 1"
     inkscape:groupmode="layer"
     id="layer1">
    <g
       id="g3719"
       transform="translate(0,-2.6458334)">
      <rect
         style="fill:#241f31;stroke-width:0.411883"
         id="rect1120"
         width="0.5"
         height="4.2366986"
         x="6.9285693"
         y="11.74348" />
      <circle
         style="fill:#ffdd55;fill-opacity:1;stroke-width:0.374999"
         id="path1016"
         cx="7.1785693"
         cy="11.045078"
         r="1.5" />
    </g>
    <g
       id="g3723"
       transform="translate(0,-2.6458334)">
      <rect
         style="fill:#241f31;stroke-width:0.411883"
         id="rect1120-1"
         width="0.5"
         height="4.2366986"
         x="16.96386"
         y="11.74348" />
      <circle
         style="fill:#aad400;fill-opacity:1;stroke-width:0.374999"
         id="path1016-2"
         cx="17.21386"
         cy="11.045078"
         r="1.5" />
    </g>
    <g
       id="g3727"
       transform="translate(0,-2.6458334)">
      <rect
         style="fill:#241f31;stroke-width:0.411883"
         id="rect1120-6"
         width="0.5"
         height="4.2366986"
         x="35.927299"
         y="11.74348" />
      <circle
         style="fill:#de8787;fill-opacity:1;stroke-width:0.374999"
         id="path1016-9"
         cx="36.177299"
         cy="11.045078"
         r="1.5" />
    </g>
    <rect
       style="fill:#77767b;stroke-width:0.0906466"
       id="rect846"
       width="35.973961"
       height="0.9612937"
       x="4.6053963"
       y="13.330913" />
    <rect
       style="fill:#77767b;stroke-width:0.0134611"
       id="rect846-3"
       width="0.79331654"
       height="0.9612937"
       x="40.957142"
       y="13.330913" />
    <rect
       style="fill:#77767b;stroke-width:0.0134611"
       id="rect846-3-6"
       width="0.79331654"
       height="0.9612937"
       x="42.064743"
       y="13.330913" />
    <rect
       style="fill:#77767b;stroke-width:0.0134611"
       id="rect846-3-7"
       width="0.79331654"
       height="0.9612937"
       x="43.17234"
       y="13.330913" />
    <rect
       style="fill:#77767b;stroke-width:0.0134611"
       id="rect846-3-5"
       width="0.79331654"
       height="0.9612937"
       x="3.459043"
       y="13.330913" />
    <rect
       style="fill:#77767b;stroke-width:0.0134611"
       id="rect846-3-3"
       width="0.79331654"
       height="0.9612937"
       x="2.4257724"
       y="13.330913" />
    <rect
       style="fill:#77767b;stroke-width:0.0134611"
       id="rect846-3-56"
       width="0.79331654"
       height="0.9612937"
       x="1.392502"
       y="13.330913" />
    <rect
       style="fill:#deddda;stroke-width:0.422158"
       id="rect1869"
       width="13.302483"
       height="15.207359"
       x="50.707619"
       y="1.5831165" />
    <rect
       style="fill:#77767b;stroke-width:0.499999"
       id="rect2195"
       width="5.8945374"
       height="1.1973279"
       x="56.780083"
       y="2.9751554" />
    <rect
       style="fill:#77767b;stroke-width:0.213546"
       id="rect2195-5"
       width="1.0752097"
       height="1.1973279"
       x="51.878426"
       y="2.9757323" />
    <rect
       style="fill:#77767b;stroke-width:0.213546"
       id="rect2195-5-5"
       width="1.0752097"
       height="1.1973279"
       x="53.311195"
       y="2.9757323" />
    <rect
       style="fill:#77767b;stroke-width:0.213546"
       id="rect2195-5-1"
       width="1.0752097"
       height="1.1973279"
       x="54.84166"
       y="2.9757323" />
    <rect
       style="fill:#9a9996;stroke-width:0.499999"
       id="rect2195-3"
       width="5.8945374"
       height="1.1973279"
       x="56.780083"
       y="6.2217574" />
    <rect
       style="fill:#9a9996;stroke-width:0.499999"
       id="rect2195-9"
       width="5.8945374"
       height="1.1973279"
       x="56.780083"
       y="8.2537622" />
    <rect
       style="fill:#9a9996;stroke-width:0.499999"
       id="rect2195-4"
       width="5.8945374"
       height="1.1973279"
       x="56.780083"
       y="10.285762" />
    <rect
       style="fill:#9a9996;stroke-width:0.499999"
       id="rect2195-98"
       width="5.8945374"
       height="1.1973279"
       x="56.780083"
       y="12.317764" />
    <rect
       style="fill:#9a9996;stroke-width:0.499999"
       id="rect2195-92"
       width="5.8945374"
       height="1.1973279"
       x="56.780083"
       y="14.349763" />
    <path
       style="fill:none;stroke:#000000;stroke-width:0.264583px;stroke-linecap:butt;stroke-linejoin:miter;stroke-opacity:1;marker-end:url(#Arrow2Lend)"
       d="M 25.855743,4.6590885 C 25.592686,1.9277271 43.621191,1.2856354 56.780081,8.8524159"
       id="path2072"
       sodipodi:nodetypes="cc" />
    <path
       style="fill:none;stroke:#000000;stroke-width:0.262129px;stroke-linecap:butt;stroke-linejoin:miter;stroke-opacity:1;marker-start:url(#StopL);marker-end:url(#StopL)"
       d="M 17.286842,4.629265 36.07267,4.6889122"
       id="path1497"
       sodipodi:nodetypes="cc" />
    <g
       inkscape:label=""
       transform="matrix(0.34476074,0,0,0.34476074,7.7239962,12.80804)"
       id="g1888">
      <g
         id="g4575"
         transform="translate(-95.502392,-70.782731)">
        <g
           style="fill:#000000;fill-opacity:1"
           id="g1799">
          <use
             xlink:href="#symbol6497"
             x="91.925003"
             y="81.962997"
             id="use2160"
             width="100%"
             height="100%" />
        </g>
        <g
           style="fill:#000000;fill-opacity:1"
           id="g233">
          <use
             xlink:href="#symbol7363"
             x="95.523003"
             y="83.457001"
             id="use9839"
             width="100%"
             height="100%" />
        </g>
      </g>
    </g>
    <g
       inkscape:label=""
       transform="matrix(0.31122957,0,0,0.31122957,-11.921015,-8.7112741)"
       id="g5645">
      <g
         id="g1801">
        <g
           style="fill:#000000;fill-opacity:1"
           id="g2829">
          <use
             xlink:href="#symbol5510"
             x="91.925003"
             y="81.962997"
             id="use5007"
             width="100%"
             height="100%" />
        </g>
        <g
           style="fill:#000000;fill-opacity:1"
           id="g1662">
          <use
             xlink:href="#symbol46"
             x="95.523003"
             y="83.457001"
             id="use3579"
             width="100%"
             height="100%" />
        </g>
      </g>
    </g>
    <g
       inkscape:label=""
       transform="matrix(0.31665934,0,0,0.31665934,5.9823818,-9.1258693)"
       id="g6076">
      <g
         id="g6105">
        <g
           style="fill:#000000;fill-opacity:1"
           id="g240">
          <use
             xlink:href="#symbol5313"
             x="91.925003"
             y="81.962997"
             id="use1865"
             width="100%"
             height="100%" />
        </g>
        <g
           style="fill:#000000;fill-opacity:1"
           id="g5009">
          <use
             xlink:href="#symbol3658"
             x="95.523003"
             y="83.457001"
             id="use4221"
             width="100%"
             height="100%" />
        </g>
      </g>
    </g>
    <g
       inkscape:label=""
       transform="matrix(0.41947067,0,0,0.41947067,-13.724178,-26.151953)"
       id="g6537">
      <g
         id="g2460">
        <g
           style="fill:#000000;fill-opacity:1"
           id="g6167">
          <use
             xlink:href="#symbol2543"
             x="91.925003"
             y="81.962997"
             id="use4797"
             width="100%"
             height="100%" />
        </g>
        <g
           style="fill:#000000;fill-opacity:1"
           id="g805">
          <use
             xlink:href="#symbol8860"
             x="96.279999"
             y="83.457001"
             id="use325"
             width="100%"
             height="100%" />
        </g>
      </g>
    </g>
  </g>
</svg>
