<?xml version="1.0" encoding="UTF-8" standalone="no"?>
<svg
   version="1.1"
   width="78"
   height="24"
   viewBox="0 0 78 24"
   id="svg1278"
   sodipodi:docname="logo.svg"
   inkscape:version="1.1 (c68e22c387, 2021-05-23)"
   xmlns:inkscape="http://www.inkscape.org/namespaces/inkscape"
   xmlns:sodipodi="http://sodipodi.sourceforge.net/DTD/sodipodi-0.dtd"
   xmlns="http://www.w3.org/2000/svg"
   xmlns:svg="http://www.w3.org/2000/svg"
   xmlns:rdf="http://www.w3.org/1999/02/22-rdf-syntax-ns#"
   xmlns:cc="http://creativecommons.org/ns#"
   xmlns:dc="http://purl.org/dc/elements/1.1/">
  <metadata
     id="metadata1284">
    <rdf:RDF>
      <cc:Work
         rdf:about="">
        <dc:format>image/svg+xml</dc:format>
        <dc:type
           rdf:resource="http://purl.org/dc/dcmitype/StillImage" />
      </cc:Work>
    </rdf:RDF>
  </metadata>
  <defs
     id="defs1282" />
  <sodipodi:namedview
     pagecolor="#ffffff"
     bordercolor="#666666"
     borderopacity="1"
     objecttolerance="10"
     gridtolerance="10"
     guidetolerance="10"
     inkscape:pageopacity="0"
     inkscape:pageshadow="2"
     inkscape:window-width="1920"
     inkscape:window-height="1002"
     id="namedview1280"
     showgrid="false"
     inkscape:zoom="11.313708"
     inkscape:cx="25.146485"
     inkscape:cy="31.377863"
     inkscape:window-x="-8"
     inkscape:window-y="42"
     inkscape:window-maximized="1"
     inkscape:current-layer="layer1"
     inkscape:document-rotation="0"
     inkscape:pagecheckerboard="0" />
  <text
     xml:space="preserve"
     style="font-style:normal;font-weight:normal;font-size:40px;line-height:1.25;font-family:sans-serif;fill:#000000;fill-opacity:1;stroke:none"
     x="108.70819"
     y="8.0841751"
     id="text1315"><tspan
       sodipodi:role="line"
       id="tspan1313"
       x="108.70819"
       y="8.0841751" /></text>
  <g
     inkscape:groupmode="layer"
     id="layer1"
     inkscape:label="Layer 1">
    <rect
       style="fill:#ffffff;fill-opacity:1;stroke-width:0.729636"
       id="rect5045"
       width="35.724842"
       height="2"
       x="0.015556546"
       y="21.988785" />
    <g
       aria-label="py"
       transform="matrix(0.77131057,0,0,1.2964946,1.4720841,-0.06453795)"
       id="text1288"
       style="font-style:normal;font-weight:normal;font-size:16px;line-height:1.25;font-family:sans-serif;letter-spacing:0px;word-spacing:0px;display:inline;opacity:1;fill:#000000;fill-opacity:1;stroke:none;stroke-width:1.2965">
      <path
         d="m 35.770212,13.028516 c -0.431435,0.564286 -0.766406,0.98182 -1.200533,1.183327 -0.370632,0.172034 -1.477129,0.50353 -2.109707,0.552632 -0.632579,0.0491 -1.87121,0.0265 -2.485279,-0.157549 -0.614069,-0.184047 -0.711755,-0.329223 -0.711755,-0.329223 -0.844229,0.801416 -1.637537,1.54044 -2.402679,1.923895 l -3.230724,0.785171 -4.302984,0.0062 c 0,0 2.628992,-0.539941 4.067835,-1.176305 1.118127,-0.492022 2.3984,-1.158667 3.402216,-1.926702 0.393026,-0.300711 1.423047,-1.360497 1.775719,-2.00987 0.352672,-0.649374 0.697279,-1.9908788 0.697279,-2.5958148 0,-0.604936 0.09437,-2.9095485 0.09437,-2.9095485 l 1.860161,0.00459 c 0.0189,0.1899674 -0.141107,0.5544639 0.146906,0.4689828 0.288012,-0.085481 1.26546,-0.472655 1.998794,-0.4670028 0.733334,0.00565 1.129288,0.058073 1.835644,0.4906782 0.706355,0.4326055 0.941155,1.3854931 1.021371,2.0774233 0.07933,1.6413688 -0.0252,3.5148308 -0.456634,4.0791158 z M 34.383079,7.8955961 C 34.051661,7.5165426 32.291317,7.5470381 31.901773,7.71793 31.47255,7.8610905 31.421487,8.1937358 31.389737,8.7024385 c -0.03175,0.5087027 -0.634736,3.5478375 -0.880827,4.1184355 -0.239232,0.554693 0.878687,0.557963 1.541394,0.597261 0.662707,0.0393 1.642466,-0.168335 2.059133,-0.663127 0.416667,-0.5 0.357576,-1.664065 0.441133,-2.100767 0.08356,-0.436703 0.163927,-2.3795913 -0.167491,-2.7586449 z"
         style="font-style:normal;font-variant:normal;font-weight:normal;font-stretch:normal;font-size:16px;font-family:Consolas;-inkscape-font-specification:Consolas;letter-spacing:-1.30946px;fill:#000000;fill-opacity:1;stroke-width:1.2965"
         id="path916"
         sodipodi:nodetypes="zszzcccccszzcczzzczzczscszz" />
      <path
         d="m 43.04875,6.4055899 -2.660703,6.4695831 c -0.276042,0.713542 -0.5625,1.328125 -0.859375,1.843751 -0.291667,0.515624 -0.611979,0.937499 -0.960937,1.265625 -0.348959,0.333333 -0.731772,0.578125 -1.148438,0.734375 -0.636077,0.256762 -1.193167,0.291587 -1.844264,0.291285 -0.109375,-0.0052 -11.81529,-0.01301 -11.945498,-0.02344 l 0.07864,-1.299085 c 0.114583,0.01563 11.83077,0.01505 11.966187,0.02546 0.400551,0.0038 0.864207,-0.0069 1.125,-0.08593 0.21875,-0.07292 0.419415,-0.179111 0.612124,-0.345777 0.192708,-0.161459 0.377603,-0.372397 0.554687,-0.632813 0.177083,-0.260417 0.348958,-0.575521 0.515625,-0.945312 L 36.009523,6.4055899 h 2.377689 l 1.344585,4.6102081 c -1.919312,1.178993 -0.02849,-1.1219085 0,0 l 1.824766,-4.6102081 z"
         style="font-style:normal;font-variant:normal;font-weight:normal;font-stretch:normal;font-size:16px;font-family:Consolas;-inkscape-font-specification:Consolas;letter-spacing:-1.30946px;fill:#000000;fill-opacity:1;stroke-width:1.2965"
         id="path918"
         sodipodi:nodetypes="cccccccccccsccccccc" />
    </g>
    <circle
       style="display:inline;opacity:1;fill:#ffffff;fill-opacity:1;stroke-width:2.56268"
       id="path4158"
       cx="12.023417"
       cy="11.986724"
       r="12" />
  </g>
  <g
     inkscape:groupmode="layer"
     id="layer2"
     inkscape:label="Layer 2"
     style="display:inline;opacity:1">
    <g
       aria-label="ADLML"
       transform="matrix(0.77131057,0,0,1.2964946,0.65351486,0)"
       id="text1288-8"
       style="font-style:normal;font-weight:normal;font-size:17.3333px;line-height:1.25;font-family:sans-serif;letter-spacing:0px;word-spacing:0px;fill:#000000;fill-opacity:1;stroke:none;stroke-width:1.2965">
      <path
         d="m 47.561244,4.3744952 -2.319006,6.2883988 h 4.646475 z M 46.596402,2.6902537 h 1.938147 l 4.815746,12.6360433 h -1.77734 l -1.15104,-3.24153 h -5.695952 l -1.15104,3.24153 h -1.802731 z"
         style="font-style:normal;font-variant:normal;font-weight:normal;font-stretch:normal;font-size:17.3333px;font-family:'Font Awesome 5 Brands';-inkscape-font-specification:'Font Awesome 5 Brands';baseline-shift:baseline;opacity:1;fill:#00aad4;fill-opacity:0.569138;stroke-width:1.2965"
         id="path905" />
      <path
         d="m 56.904976,4.0951988 v 9.8261532 h 2.0651 c 1.743486,0 1.868673,-0.302553 2.675529,-1.092483 0.812499,-0.789928 1.218748,-2.036888 1.218748,-3.7408778 0,-1.692705 -0.406249,-2.9312009 -1.218748,-3.7154875 C 60.838749,4.5825746 60.713562,4.0951988 58.970076,4.0951988 Z M 55.195344,2.6902537 h 3.512362 c 2.44878,0 3.095885,0.6030439 4.241282,1.6243093 1.145397,1.015623 1.718096,2.6067658 1.718096,4.7734282 0,2.1779478 -0.57552,3.7775538 -1.726559,4.7988188 -1.15104,1.021266 -1.795324,1.439487 -4.232819,1.439487 h -3.512362 z"
         style="font-style:normal;font-variant:normal;font-weight:normal;font-stretch:normal;font-size:17.3333px;font-family:'Font Awesome 5 Brands';-inkscape-font-specification:'Font Awesome 5 Brands';baseline-shift:baseline;opacity:1;fill:#00aad4;fill-opacity:0.569138;stroke-width:1.2965"
         id="path907"
         sodipodi:nodetypes="ccscscsccscssscc" />
      <path
         d="m 66.309177,2.691096 h 1.709632 v 9.872773 h 4.109602 v 2.76327 h -5.819234 z"
         style="font-style:normal;font-variant:normal;font-weight:normal;font-stretch:normal;font-size:17.3333px;font-family:'Font Awesome 5 Brands';-inkscape-font-specification:'Font Awesome 5 Brands';baseline-shift:baseline;opacity:1;fill:#00aad4;fill-opacity:0.569138;stroke-width:1.2965"
         id="path909"
         sodipodi:nodetypes="ccccccc" />
      <path
         d="m 74.978758,2.7406067 h 2.547521 l 3.224603,8.5989413 3.24153,-8.5989413 h 2.547521 V 15.37665 H 84.872619 V 4.2809683 L 81.614162,12.947618 H 79.896066 L 76.637609,4.2809683 V 15.37665 h -1.658851 z"
         style="font-style:normal;font-variant:normal;font-weight:normal;font-stretch:normal;font-size:17.3333px;font-family:'Font Awesome 5 Brands';-inkscape-font-specification:'Font Awesome 5 Brands';stroke-width:1.2965"
         id="path911"
         sodipodi:nodetypes="cccccccccccccc" />
      <path
         d="m 89.933809,2.7406067 h 1.709633 V 12.41267 h 4.271456 v 2.96398 h -5.981089 z"
         style="font-style:normal;font-variant:normal;font-weight:normal;font-stretch:normal;font-size:17.3333px;font-family:'Font Awesome 5 Brands';-inkscape-font-specification:'Font Awesome 5 Brands';stroke-width:1.2965"
         id="path913"
         sodipodi:nodetypes="ccccccc" />
    </g>
  </g>
  <g
     inkscape:groupmode="layer"
     id="layer3"
     inkscape:label="Layer 3"
     style="display:inline" />
  <path
     d="m 21.5,9 h -5 L 18.36,7.14 C 16.9,5.23 14.59,4 12,4 7.58,4 4,7.58 4,12 c 0,1.83 0.61,3.5 1.64,4.85 1.22,-1.4 3.51,-2.35 6.36,-2.35 2.85,0 5.15,0.95 6.36,2.35 C 19.39,15.5 20,13.83 20,12 h 2 C 22,17.5 17.5,22 12,22 6.5,22 2,17.5 2,12 2,6.5 6.5,2 12,2 c 3.14,0 5.95,1.45 7.78,3.72 L 21.5,4 V 9 M 12,7 c 1.66,0 3,1.34 3,3 0,1.66 -1.34,3 -3,3 -1.66,0 -3,-1.34 -3,-3 0,-1.66 1.34,-3 3,-3 z"
     id="path1276" />
</svg>
